M48
INCH
T70C0.016
T69C0.020
T68C0.118
T67C0.013
T66C0.028
T65C0.090
T64C0.038
T63C0.125
T62C0.035
T61C0.030
%
T67
X0002200Y0017000
X0002200Y0016400
X0002450Y0016050
X0002450Y0015400
X0002450Y0014750
X0002550Y0021500
X0002550Y0021000
X0002550Y0020250
X0002550Y0019750
X0002550Y0019000
X0002550Y0018500
X0002800Y0015700
X0002800Y0015050
X0003490Y0017120
X0003500Y0023500
X0003500Y0022250
X0003810Y0016930
X0004000Y0024000
X0004000Y0022750
X0004130Y0017110
X0004440Y0016930
X0004740Y0024000
X0004740Y0022750
X0004740Y0021500
X0004740Y0020250
X0004760Y0017110
X0005070Y0016910
X0006050Y0015700
X0006050Y0015200
X0006240Y0019000
X0006490Y0024000
X0006490Y0022750
X0006490Y0021500
X0006490Y0020250
X0007250Y0025250
X0007990Y0025250
X0007990Y0019000
X0009000Y0017000
X0009250Y0016500
X0010000Y0006000
X0010740Y0006000
X0011750Y0006000
X0012490Y0006000
X0012500Y0008500
T70
X0005070Y0012970
X0005380Y0013270
X0005700Y0012970
T69
X0000550Y0012940
X0001000Y0011700
X0001000Y0010750
X0002030Y0013810
X0003810Y0012980
X0005700Y0017150
X0006200Y0014440
X0006300Y0004450
X0007400Y0016100
X0007500Y0013600
T66
X0003030Y0009700
X0003030Y0008920
X0004010Y0009700
X0004010Y0008920
T61
X0008350Y0015850
X0008350Y0013850
X0010250Y0005000
X0012250Y0005000
T62
X0004120Y0015070
X0004350Y0010400
X0005150Y0010900
X0009990Y0025320
X0009990Y0024240
X0009990Y0023160
X0009990Y0022080
X0009990Y0021000
X0009990Y0019920
X0009990Y0018840
X0009990Y0017760
X0009990Y0016680
X0009990Y0015600
X0009990Y0014520
X0009990Y0013440
X0009990Y0012360
X0011110Y0024780
X0011110Y0023700
X0011110Y0022620
X0011110Y0021540
X0011110Y0020460
X0011110Y0019380
X0011110Y0018300
X0011110Y0017220
X0011110Y0016140
X0011110Y0015060
X0011110Y0013980
X0011110Y0012900
T64
X0006950Y0017450
X0007000Y0011250
X0007000Y0010250
X0007000Y0009250
X0007950Y0017450
X0008000Y0011250
X0008000Y0010250
X0008000Y0009250
T65
X0001150Y0007850
X0005890Y0007850
T68
X0002000Y0028250
X0007500Y0028250
X0007750Y0007800
T63
X0010550Y0028020
X0010550Y0009660
M30
