G04 start of page 12 for group -3984 idx -3984 *
G04 Title: (unknown), fab *
G04 Creator: pcb 1.99z *
G04 CreationDate: Wed 16 Oct 2013 05:43:19 AM GMT UTC *
G04 For: commonadmin *
G04 Format: Gerber/RS-274X *
G04 PCB-Dimensions: 200000 300000 *
G04 PCB-Coordinate-Origin: lower left *
%MOIN*%
%FSLAX25Y25*%
%LNFAB*%
%ADD105C,0.0100*%
%ADD104C,0.0075*%
%ADD103C,0.0060*%
%ADD102R,0.0080X0.0080*%
G54D102*X103900Y98200D02*X107100D01*
X103900D02*Y95000D01*
X107100D01*
Y98200D02*Y95000D01*
X102300Y99800D02*X108700D01*
X102300D02*Y93400D01*
X108700D01*
Y99800D02*Y93400D01*
X103900Y281800D02*X107100D01*
X103900D02*Y278600D01*
X107100D01*
Y281800D02*Y278600D01*
X102300Y283400D02*X108700D01*
X102300D02*Y277000D01*
X108700D01*
Y283400D02*Y277000D01*
X13400Y312850D02*X16600D01*
X13400D02*Y309650D01*
X16600D01*
Y312850D02*Y309650D01*
X11800Y314450D02*X18200D01*
X11800D02*Y308050D01*
X18200D01*
Y314450D02*Y308050D01*
G54D103*X135000Y313500D02*X136500Y310500D01*
X138000Y313500D01*
X136500Y310500D02*Y307500D01*
X139800Y310800D02*X142050D01*
X139800Y307500D02*X142800D01*
X139800Y313500D02*Y307500D01*
Y313500D02*X142800D01*
X147600D02*X148350Y312750D01*
X145350Y313500D02*X147600D01*
X144600Y312750D02*X145350Y313500D01*
X144600Y312750D02*Y311250D01*
X145350Y310500D01*
X147600D01*
X148350Y309750D01*
Y308250D01*
X147600Y307500D02*X148350Y308250D01*
X145350Y307500D02*X147600D01*
X144600Y308250D02*X145350Y307500D01*
X98000Y312750D02*X98750Y313500D01*
X101000D01*
X101750Y312750D01*
Y311250D01*
X98000Y307500D02*X101750Y311250D01*
X98000Y307500D02*X101750D01*
X45000Y308250D02*X45750Y307500D01*
X45000Y312750D02*Y308250D01*
Y312750D02*X45750Y313500D01*
X47250D01*
X48000Y312750D01*
Y308250D01*
X47250Y307500D02*X48000Y308250D01*
X45750Y307500D02*X47250D01*
X45000Y309000D02*X48000Y312000D01*
X49800Y307500D02*X50550D01*
X52350Y312300D02*X53550Y313500D01*
Y307500D01*
X52350D02*X54600D01*
X56400Y312750D02*X57150Y313500D01*
X59400D01*
X60150Y312750D01*
Y311250D01*
X56400Y307500D02*X60150Y311250D01*
X56400Y307500D02*X60150D01*
X61950Y313500D02*X64950D01*
X61950D02*Y310500D01*
X62700Y311250D01*
X64200D01*
X64950Y310500D01*
Y308250D01*
X64200Y307500D02*X64950Y308250D01*
X62700Y307500D02*X64200D01*
X61950Y308250D02*X62700Y307500D01*
X76700Y78000D02*G75*G03X78300Y78000I800J0D01*G01*
G75*G03X76700Y78000I-800J0D01*G01*
X75100D02*G75*G03X79900Y78000I2400J0D01*G01*
G75*G03X75100Y78000I-2400J0D01*G01*
X19200Y282500D02*G75*G03X20800Y282500I800J0D01*G01*
G75*G03X19200Y282500I-800J0D01*G01*
X17600D02*G75*G03X22400Y282500I2400J0D01*G01*
G75*G03X17600Y282500I-2400J0D01*G01*
X74200D02*G75*G03X75800Y282500I800J0D01*G01*
G75*G03X74200Y282500I-800J0D01*G01*
X72600D02*G75*G03X77400Y282500I2400J0D01*G01*
G75*G03X72600Y282500I-2400J0D01*G01*
X14200Y326250D02*G75*G03X15800Y326250I800J0D01*G01*
G75*G03X14200Y326250I-800J0D01*G01*
X12600D02*G75*G03X17400Y326250I2400J0D01*G01*
G75*G03X12600Y326250I-2400J0D01*G01*
X135000Y328500D02*X136500Y325500D01*
X138000Y328500D01*
X136500Y325500D02*Y322500D01*
X139800Y325800D02*X142050D01*
X139800Y322500D02*X142800D01*
X139800Y328500D02*Y322500D01*
Y328500D02*X142800D01*
X147600D02*X148350Y327750D01*
X145350Y328500D02*X147600D01*
X144600Y327750D02*X145350Y328500D01*
X144600Y327750D02*Y326250D01*
X145350Y325500D01*
X147600D01*
X148350Y324750D01*
Y323250D01*
X147600Y322500D02*X148350Y323250D01*
X145350Y322500D02*X147600D01*
X144600Y323250D02*X145350Y322500D01*
X98000Y327750D02*X98750Y328500D01*
X100250D01*
X101000Y327750D01*
X100250Y322500D02*X101000Y323250D01*
X98750Y322500D02*X100250D01*
X98000Y323250D02*X98750Y322500D01*
Y325800D02*X100250D01*
X101000Y327750D02*Y326550D01*
Y325050D02*Y323250D01*
Y325050D02*X100250Y325800D01*
X101000Y326550D02*X100250Y325800D01*
X45000Y323250D02*X45750Y322500D01*
X45000Y327750D02*Y323250D01*
Y327750D02*X45750Y328500D01*
X47250D01*
X48000Y327750D01*
Y323250D01*
X47250Y322500D02*X48000Y323250D01*
X45750Y322500D02*X47250D01*
X45000Y324000D02*X48000Y327000D01*
X49800Y322500D02*X50550D01*
X52350Y327300D02*X53550Y328500D01*
Y322500D01*
X52350D02*X54600D01*
X56400Y327300D02*X57600Y328500D01*
Y322500D01*
X56400D02*X58650D01*
X60450Y323250D02*X61200Y322500D01*
X60450Y324450D02*Y323250D01*
Y324450D02*X61500Y325500D01*
X62400D01*
X63450Y324450D01*
Y323250D01*
X62700Y322500D02*X63450Y323250D01*
X61200Y322500D02*X62700D01*
X60450Y326550D02*X61500Y325500D01*
X60450Y327750D02*Y326550D01*
Y327750D02*X61200Y328500D01*
X62700D01*
X63450Y327750D01*
Y326550D01*
X62400Y325500D02*X63450Y326550D01*
X56500Y80900D02*X61300Y76100D01*
X56500D02*X61300Y80900D01*
X57300Y80100D02*X60500D01*
X57300D02*Y76900D01*
X60500D01*
Y80100D02*Y76900D01*
X9100Y80900D02*X13900Y76100D01*
X9100D02*X13900Y80900D01*
X9900Y80100D02*X13100D01*
X9900D02*Y76900D01*
X13100D01*
Y80100D02*Y76900D01*
X12600Y343650D02*X17400Y338850D01*
X12600D02*X17400Y343650D01*
X13400Y342850D02*X16600D01*
X13400D02*Y339650D01*
X16600D01*
Y342850D02*Y339650D01*
X135000Y343500D02*X136500Y340500D01*
X138000Y343500D01*
X136500Y340500D02*Y337500D01*
X139800Y340800D02*X142050D01*
X139800Y337500D02*X142800D01*
X139800Y343500D02*Y337500D01*
Y343500D02*X142800D01*
X147600D02*X148350Y342750D01*
X145350Y343500D02*X147600D01*
X144600Y342750D02*X145350Y343500D01*
X144600Y342750D02*Y341250D01*
X145350Y340500D01*
X147600D01*
X148350Y339750D01*
Y338250D01*
X147600Y337500D02*X148350Y338250D01*
X145350Y337500D02*X147600D01*
X144600Y338250D02*X145350Y337500D01*
X98000Y342750D02*X98750Y343500D01*
X101000D01*
X101750Y342750D01*
Y341250D01*
X98000Y337500D02*X101750Y341250D01*
X98000Y337500D02*X101750D01*
X45000Y338250D02*X45750Y337500D01*
X45000Y342750D02*Y338250D01*
Y342750D02*X45750Y343500D01*
X47250D01*
X48000Y342750D01*
Y338250D01*
X47250Y337500D02*X48000Y338250D01*
X45750Y337500D02*X47250D01*
X45000Y339000D02*X48000Y342000D01*
X49800Y337500D02*X50550D01*
X52350Y338250D02*X53100Y337500D01*
X52350Y342750D02*Y338250D01*
Y342750D02*X53100Y343500D01*
X54600D01*
X55350Y342750D01*
Y338250D01*
X54600Y337500D02*X55350Y338250D01*
X53100Y337500D02*X54600D01*
X52350Y339000D02*X55350Y342000D01*
X57900Y337500D02*X60150Y340500D01*
Y342750D02*Y340500D01*
X59400Y343500D02*X60150Y342750D01*
X57900Y343500D02*X59400D01*
X57150Y342750D02*X57900Y343500D01*
X57150Y342750D02*Y341250D01*
X57900Y340500D01*
X60150D01*
X61950Y342300D02*X63150Y343500D01*
Y337500D01*
X61950D02*X64200D01*
X80000Y95700D02*Y89300D01*
X76800Y92500D02*X83200D01*
X78400Y94100D02*X81600D01*
X78400D02*Y90900D01*
X81600D01*
Y94100D02*Y90900D01*
X70000Y95700D02*Y89300D01*
X66800Y92500D02*X73200D01*
X68400Y94100D02*X71600D01*
X68400D02*Y90900D01*
X71600D01*
Y94100D02*Y90900D01*
X80000Y105700D02*Y99300D01*
X76800Y102500D02*X83200D01*
X78400Y104100D02*X81600D01*
X78400D02*Y100900D01*
X81600D01*
Y104100D02*Y100900D01*
X70000Y105700D02*Y99300D01*
X66800Y102500D02*X73200D01*
X68400Y104100D02*X71600D01*
X68400D02*Y100900D01*
X71600D01*
Y104100D02*Y100900D01*
X80000Y115700D02*Y109300D01*
X76800Y112500D02*X83200D01*
X78400Y114100D02*X81600D01*
X78400D02*Y110900D01*
X81600D01*
Y114100D02*Y110900D01*
X70000Y115700D02*Y109300D01*
X66800Y112500D02*X73200D01*
X68400Y114100D02*X71600D01*
X68400D02*Y110900D01*
X71600D01*
Y114100D02*Y110900D01*
X79500Y177700D02*Y171300D01*
X76300Y174500D02*X82700D01*
X77900Y176100D02*X81100D01*
X77900D02*Y172900D01*
X81100D01*
Y176100D02*Y172900D01*
X69500Y177700D02*Y171300D01*
X66300Y174500D02*X72700D01*
X67900Y176100D02*X71100D01*
X67900D02*Y172900D01*
X71100D01*
Y176100D02*Y172900D01*
X15000Y359450D02*Y353050D01*
X11800Y356250D02*X18200D01*
X13400Y357850D02*X16600D01*
X13400D02*Y354650D01*
X16600D01*
Y357850D02*Y354650D01*
X135000Y358500D02*X136500Y355500D01*
X138000Y358500D01*
X136500Y355500D02*Y352500D01*
X139800Y355800D02*X142050D01*
X139800Y352500D02*X142800D01*
X139800Y358500D02*Y352500D01*
Y358500D02*X142800D01*
X147600D02*X148350Y357750D01*
X145350Y358500D02*X147600D01*
X144600Y357750D02*X145350Y358500D01*
X144600Y357750D02*Y356250D01*
X145350Y355500D01*
X147600D01*
X148350Y354750D01*
Y353250D01*
X147600Y352500D02*X148350Y353250D01*
X145350Y352500D02*X147600D01*
X144600Y353250D02*X145350Y352500D01*
X98000Y353250D02*X98750Y352500D01*
X98000Y354450D02*Y353250D01*
Y354450D02*X99050Y355500D01*
X99950D01*
X101000Y354450D01*
Y353250D01*
X100250Y352500D02*X101000Y353250D01*
X98750Y352500D02*X100250D01*
X98000Y356550D02*X99050Y355500D01*
X98000Y357750D02*Y356550D01*
Y357750D02*X98750Y358500D01*
X100250D01*
X101000Y357750D01*
Y356550D01*
X99950Y355500D02*X101000Y356550D01*
X45000Y353250D02*X45750Y352500D01*
X45000Y357750D02*Y353250D01*
Y357750D02*X45750Y358500D01*
X47250D01*
X48000Y357750D01*
Y353250D01*
X47250Y352500D02*X48000Y353250D01*
X45750Y352500D02*X47250D01*
X45000Y354000D02*X48000Y357000D01*
X49800Y352500D02*X50550D01*
X52350Y353250D02*X53100Y352500D01*
X52350Y357750D02*Y353250D01*
Y357750D02*X53100Y358500D01*
X54600D01*
X55350Y357750D01*
Y353250D01*
X54600Y352500D02*X55350Y353250D01*
X53100Y352500D02*X54600D01*
X52350Y354000D02*X55350Y357000D01*
X57150Y357750D02*X57900Y358500D01*
X59400D01*
X60150Y357750D01*
X59400Y352500D02*X60150Y353250D01*
X57900Y352500D02*X59400D01*
X57150Y353250D02*X57900Y352500D01*
Y355800D02*X59400D01*
X60150Y357750D02*Y356550D01*
Y355050D02*Y353250D01*
Y355050D02*X59400Y355800D01*
X60150Y356550D02*X59400Y355800D01*
X61950Y353250D02*X62700Y352500D01*
X61950Y354450D02*Y353250D01*
Y354450D02*X63000Y355500D01*
X63900D01*
X64950Y354450D01*
Y353250D01*
X64200Y352500D02*X64950Y353250D01*
X62700Y352500D02*X64200D01*
X61950Y356550D02*X63000Y355500D01*
X61950Y357750D02*Y356550D01*
Y357750D02*X62700Y358500D01*
X64200D01*
X64950Y357750D01*
Y356550D01*
X63900Y355500D02*X64950Y356550D01*
X99900Y253200D02*Y250000D01*
Y253200D02*X102673Y254800D01*
X99900Y253200D02*X97127Y254800D01*
X98300Y253200D02*G75*G03X101500Y253200I1600J0D01*G01*
G75*G03X98300Y253200I-1600J0D01*G01*
X99900Y242400D02*Y239200D01*
Y242400D02*X102673Y244000D01*
X99900Y242400D02*X97127Y244000D01*
X98300Y242400D02*G75*G03X101500Y242400I1600J0D01*G01*
G75*G03X98300Y242400I-1600J0D01*G01*
X99900Y231600D02*Y228400D01*
Y231600D02*X102673Y233200D01*
X99900Y231600D02*X97127Y233200D01*
X98300Y231600D02*G75*G03X101500Y231600I1600J0D01*G01*
G75*G03X98300Y231600I-1600J0D01*G01*
X99900Y220800D02*Y217600D01*
Y220800D02*X102673Y222400D01*
X99900Y220800D02*X97127Y222400D01*
X98300Y220800D02*G75*G03X101500Y220800I1600J0D01*G01*
G75*G03X98300Y220800I-1600J0D01*G01*
X99900Y210000D02*Y206800D01*
Y210000D02*X102673Y211600D01*
X99900Y210000D02*X97127Y211600D01*
X98300Y210000D02*G75*G03X101500Y210000I1600J0D01*G01*
G75*G03X98300Y210000I-1600J0D01*G01*
X99900Y199200D02*Y196000D01*
Y199200D02*X102673Y200800D01*
X99900Y199200D02*X97127Y200800D01*
X98300Y199200D02*G75*G03X101500Y199200I1600J0D01*G01*
G75*G03X98300Y199200I-1600J0D01*G01*
X99900Y188400D02*Y185200D01*
Y188400D02*X102673Y190000D01*
X99900Y188400D02*X97127Y190000D01*
X98300Y188400D02*G75*G03X101500Y188400I1600J0D01*G01*
G75*G03X98300Y188400I-1600J0D01*G01*
X99900Y177600D02*Y174400D01*
Y177600D02*X102673Y179200D01*
X99900Y177600D02*X97127Y179200D01*
X98300Y177600D02*G75*G03X101500Y177600I1600J0D01*G01*
G75*G03X98300Y177600I-1600J0D01*G01*
X99900Y166800D02*Y163600D01*
Y166800D02*X102673Y168400D01*
X99900Y166800D02*X97127Y168400D01*
X98300Y166800D02*G75*G03X101500Y166800I1600J0D01*G01*
G75*G03X98300Y166800I-1600J0D01*G01*
X99900Y156000D02*Y152800D01*
Y156000D02*X102673Y157600D01*
X99900Y156000D02*X97127Y157600D01*
X98300Y156000D02*G75*G03X101500Y156000I1600J0D01*G01*
G75*G03X98300Y156000I-1600J0D01*G01*
X99900Y145200D02*Y142000D01*
Y145200D02*X102673Y146800D01*
X99900Y145200D02*X97127Y146800D01*
X98300Y145200D02*G75*G03X101500Y145200I1600J0D01*G01*
G75*G03X98300Y145200I-1600J0D01*G01*
X99900Y134400D02*Y131200D01*
Y134400D02*X102673Y136000D01*
X99900Y134400D02*X97127Y136000D01*
X98300Y134400D02*G75*G03X101500Y134400I1600J0D01*G01*
G75*G03X98300Y134400I-1600J0D01*G01*
X99900Y123600D02*Y120400D01*
Y123600D02*X102673Y125200D01*
X99900Y123600D02*X97127Y125200D01*
X98300Y123600D02*G75*G03X101500Y123600I1600J0D01*G01*
G75*G03X98300Y123600I-1600J0D01*G01*
X111100Y247800D02*Y244600D01*
Y247800D02*X113873Y249400D01*
X111100Y247800D02*X108327Y249400D01*
X109500Y247800D02*G75*G03X112700Y247800I1600J0D01*G01*
G75*G03X109500Y247800I-1600J0D01*G01*
X111100Y237000D02*Y233800D01*
Y237000D02*X113873Y238600D01*
X111100Y237000D02*X108327Y238600D01*
X109500Y237000D02*G75*G03X112700Y237000I1600J0D01*G01*
G75*G03X109500Y237000I-1600J0D01*G01*
X111100Y226200D02*Y223000D01*
Y226200D02*X113873Y227800D01*
X111100Y226200D02*X108327Y227800D01*
X109500Y226200D02*G75*G03X112700Y226200I1600J0D01*G01*
G75*G03X109500Y226200I-1600J0D01*G01*
X111100Y215400D02*Y212200D01*
Y215400D02*X113873Y217000D01*
X111100Y215400D02*X108327Y217000D01*
X109500Y215400D02*G75*G03X112700Y215400I1600J0D01*G01*
G75*G03X109500Y215400I-1600J0D01*G01*
X111100Y204600D02*Y201400D01*
Y204600D02*X113873Y206200D01*
X111100Y204600D02*X108327Y206200D01*
X109500Y204600D02*G75*G03X112700Y204600I1600J0D01*G01*
G75*G03X109500Y204600I-1600J0D01*G01*
X111100Y193800D02*Y190600D01*
Y193800D02*X113873Y195400D01*
X111100Y193800D02*X108327Y195400D01*
X109500Y193800D02*G75*G03X112700Y193800I1600J0D01*G01*
G75*G03X109500Y193800I-1600J0D01*G01*
X111100Y183000D02*Y179800D01*
Y183000D02*X113873Y184600D01*
X111100Y183000D02*X108327Y184600D01*
X109500Y183000D02*G75*G03X112700Y183000I1600J0D01*G01*
G75*G03X109500Y183000I-1600J0D01*G01*
X111100Y172200D02*Y169000D01*
Y172200D02*X113873Y173800D01*
X111100Y172200D02*X108327Y173800D01*
X109500Y172200D02*G75*G03X112700Y172200I1600J0D01*G01*
G75*G03X109500Y172200I-1600J0D01*G01*
X111100Y161400D02*Y158200D01*
Y161400D02*X113873Y163000D01*
X111100Y161400D02*X108327Y163000D01*
X109500Y161400D02*G75*G03X112700Y161400I1600J0D01*G01*
G75*G03X109500Y161400I-1600J0D01*G01*
X111100Y150600D02*Y147400D01*
Y150600D02*X113873Y152200D01*
X111100Y150600D02*X108327Y152200D01*
X109500Y150600D02*G75*G03X112700Y150600I1600J0D01*G01*
G75*G03X109500Y150600I-1600J0D01*G01*
X111100Y139800D02*Y136600D01*
Y139800D02*X113873Y141400D01*
X111100Y139800D02*X108327Y141400D01*
X109500Y139800D02*G75*G03X112700Y139800I1600J0D01*G01*
G75*G03X109500Y139800I-1600J0D01*G01*
X111100Y129000D02*Y125800D01*
Y129000D02*X113873Y130600D01*
X111100Y129000D02*X108327Y130600D01*
X109500Y129000D02*G75*G03X112700Y129000I1600J0D01*G01*
G75*G03X109500Y129000I-1600J0D01*G01*
X51500Y109000D02*Y105800D01*
Y109000D02*X54273Y110600D01*
X51500Y109000D02*X48727Y110600D01*
X49900Y109000D02*G75*G03X53100Y109000I1600J0D01*G01*
G75*G03X49900Y109000I-1600J0D01*G01*
X43500Y104000D02*Y100800D01*
Y104000D02*X46273Y105600D01*
X43500Y104000D02*X40727Y105600D01*
X41900Y104000D02*G75*G03X45100Y104000I1600J0D01*G01*
G75*G03X41900Y104000I-1600J0D01*G01*
X41248Y150685D02*Y147485D01*
Y150685D02*X44021Y152285D01*
X41248Y150685D02*X38475Y152285D01*
X39648Y150685D02*G75*G03X42848Y150685I1600J0D01*G01*
G75*G03X39648Y150685I-1600J0D01*G01*
X15000Y371250D02*Y368050D01*
Y371250D02*X17773Y372850D01*
X15000Y371250D02*X12227Y372850D01*
X13400Y371250D02*G75*G03X16600Y371250I1600J0D01*G01*
G75*G03X13400Y371250I-1600J0D01*G01*
X135000Y373500D02*X136500Y370500D01*
X138000Y373500D01*
X136500Y370500D02*Y367500D01*
X139800Y370800D02*X142050D01*
X139800Y367500D02*X142800D01*
X139800Y373500D02*Y367500D01*
Y373500D02*X142800D01*
X147600D02*X148350Y372750D01*
X145350Y373500D02*X147600D01*
X144600Y372750D02*X145350Y373500D01*
X144600Y372750D02*Y371250D01*
X145350Y370500D01*
X147600D01*
X148350Y369750D01*
Y368250D01*
X147600Y367500D02*X148350Y368250D01*
X145350Y367500D02*X147600D01*
X144600Y368250D02*X145350Y367500D01*
X98000Y372750D02*X98750Y373500D01*
X101000D01*
X101750Y372750D01*
Y371250D01*
X98000Y367500D02*X101750Y371250D01*
X98000Y367500D02*X101750D01*
X103550Y368250D02*X104300Y367500D01*
X103550Y369450D02*Y368250D01*
Y369450D02*X104600Y370500D01*
X105500D01*
X106550Y369450D01*
Y368250D01*
X105800Y367500D02*X106550Y368250D01*
X104300Y367500D02*X105800D01*
X103550Y371550D02*X104600Y370500D01*
X103550Y372750D02*Y371550D01*
Y372750D02*X104300Y373500D01*
X105800D01*
X106550Y372750D01*
Y371550D01*
X105500Y370500D02*X106550Y371550D01*
X45000Y368250D02*X45750Y367500D01*
X45000Y372750D02*Y368250D01*
Y372750D02*X45750Y373500D01*
X47250D01*
X48000Y372750D01*
Y368250D01*
X47250Y367500D02*X48000Y368250D01*
X45750Y367500D02*X47250D01*
X45000Y369000D02*X48000Y372000D01*
X49800Y367500D02*X50550D01*
X52350Y368250D02*X53100Y367500D01*
X52350Y372750D02*Y368250D01*
Y372750D02*X53100Y373500D01*
X54600D01*
X55350Y372750D01*
Y368250D01*
X54600Y367500D02*X55350Y368250D01*
X53100Y367500D02*X54600D01*
X52350Y369000D02*X55350Y372000D01*
X57150Y372750D02*X57900Y373500D01*
X59400D01*
X60150Y372750D01*
X59400Y367500D02*X60150Y368250D01*
X57900Y367500D02*X59400D01*
X57150Y368250D02*X57900Y367500D01*
Y370800D02*X59400D01*
X60150Y372750D02*Y371550D01*
Y370050D02*Y368250D01*
Y370050D02*X59400Y370800D01*
X60150Y371550D02*X59400Y370800D01*
X61950Y373500D02*X64950D01*
X61950D02*Y370500D01*
X62700Y371250D01*
X64200D01*
X64950Y370500D01*
Y368250D01*
X64200Y367500D02*X64950Y368250D01*
X62700Y367500D02*X64200D01*
X61950Y368250D02*X62700Y367500D01*
X100900Y51600D02*X104100D01*
X100900D02*Y48400D01*
X104100D01*
Y51600D02*Y48400D01*
X120900Y51600D02*X124100D01*
X120900D02*Y48400D01*
X124100D01*
Y51600D02*Y48400D01*
X81900Y160100D02*X85100D01*
X81900D02*Y156900D01*
X85100D01*
Y160100D02*Y156900D01*
X81900Y140100D02*X85100D01*
X81900D02*Y136900D01*
X85100D01*
Y140100D02*Y136900D01*
X13400Y387850D02*X16600D01*
X13400D02*Y384650D01*
X16600D01*
Y387850D02*Y384650D01*
X135000Y388500D02*X136500Y385500D01*
X138000Y388500D01*
X136500Y385500D02*Y382500D01*
X139800Y385800D02*X142050D01*
X139800Y382500D02*X142800D01*
X139800Y388500D02*Y382500D01*
Y388500D02*X142800D01*
X147600D02*X148350Y387750D01*
X145350Y388500D02*X147600D01*
X144600Y387750D02*X145350Y388500D01*
X144600Y387750D02*Y386250D01*
X145350Y385500D01*
X147600D01*
X148350Y384750D01*
Y383250D01*
X147600Y382500D02*X148350Y383250D01*
X145350Y382500D02*X147600D01*
X144600Y383250D02*X145350Y382500D01*
X98000Y384750D02*X101000Y388500D01*
X98000Y384750D02*X101750D01*
X101000Y388500D02*Y382500D01*
X45000Y383250D02*X45750Y382500D01*
X45000Y387750D02*Y383250D01*
Y387750D02*X45750Y388500D01*
X47250D01*
X48000Y387750D01*
Y383250D01*
X47250Y382500D02*X48000Y383250D01*
X45750Y382500D02*X47250D01*
X45000Y384000D02*X48000Y387000D01*
X49800Y382500D02*X50550D01*
X52350Y383250D02*X53100Y382500D01*
X52350Y387750D02*Y383250D01*
Y387750D02*X53100Y388500D01*
X54600D01*
X55350Y387750D01*
Y383250D01*
X54600Y382500D02*X55350Y383250D01*
X53100Y382500D02*X54600D01*
X52350Y384000D02*X55350Y387000D01*
X57150Y387750D02*X57900Y388500D01*
X59400D01*
X60150Y387750D01*
X59400Y382500D02*X60150Y383250D01*
X57900Y382500D02*X59400D01*
X57150Y383250D02*X57900Y382500D01*
Y385800D02*X59400D01*
X60150Y387750D02*Y386550D01*
Y385050D02*Y383250D01*
Y385050D02*X59400Y385800D01*
X60150Y386550D02*X59400Y385800D01*
X61950Y383250D02*X62700Y382500D01*
X61950Y387750D02*Y383250D01*
Y387750D02*X62700Y388500D01*
X64200D01*
X64950Y387750D01*
Y383250D01*
X64200Y382500D02*X64950Y383250D01*
X62700Y382500D02*X64200D01*
X61950Y384000D02*X64950Y387000D01*
X39300Y89200D02*G75*G03X40900Y89200I800J0D01*G01*
G75*G03X39300Y89200I-800J0D01*G01*
X29500D02*G75*G03X31100Y89200I800J0D01*G01*
G75*G03X29500Y89200I-800J0D01*G01*
Y97000D02*G75*G03X31100Y97000I800J0D01*G01*
G75*G03X29500Y97000I-800J0D01*G01*
X39300D02*G75*G03X40900Y97000I800J0D01*G01*
G75*G03X39300Y97000I-800J0D01*G01*
X14200Y401250D02*G75*G03X15800Y401250I800J0D01*G01*
G75*G03X14200Y401250I-800J0D01*G01*
X135000Y403500D02*X136500Y400500D01*
X138000Y403500D01*
X136500Y400500D02*Y397500D01*
X139800Y400800D02*X142050D01*
X139800Y397500D02*X142800D01*
X139800Y403500D02*Y397500D01*
Y403500D02*X142800D01*
X147600D02*X148350Y402750D01*
X145350Y403500D02*X147600D01*
X144600Y402750D02*X145350Y403500D01*
X144600Y402750D02*Y401250D01*
X145350Y400500D01*
X147600D01*
X148350Y399750D01*
Y398250D01*
X147600Y397500D02*X148350Y398250D01*
X145350Y397500D02*X147600D01*
X144600Y398250D02*X145350Y397500D01*
X98000Y399750D02*X101000Y403500D01*
X98000Y399750D02*X101750D01*
X101000Y403500D02*Y397500D01*
X45000Y398250D02*X45750Y397500D01*
X45000Y402750D02*Y398250D01*
Y402750D02*X45750Y403500D01*
X47250D01*
X48000Y402750D01*
Y398250D01*
X47250Y397500D02*X48000Y398250D01*
X45750Y397500D02*X47250D01*
X45000Y399000D02*X48000Y402000D01*
X49800Y397500D02*X50550D01*
X52350Y398250D02*X53100Y397500D01*
X52350Y402750D02*Y398250D01*
Y402750D02*X53100Y403500D01*
X54600D01*
X55350Y402750D01*
Y398250D01*
X54600Y397500D02*X55350Y398250D01*
X53100Y397500D02*X54600D01*
X52350Y399000D02*X55350Y402000D01*
X57150Y402750D02*X57900Y403500D01*
X60150D01*
X60900Y402750D01*
Y401250D01*
X57150Y397500D02*X60900Y401250D01*
X57150Y397500D02*X60900D01*
X62700Y398250D02*X63450Y397500D01*
X62700Y399450D02*Y398250D01*
Y399450D02*X63750Y400500D01*
X64650D01*
X65700Y399450D01*
Y398250D01*
X64950Y397500D02*X65700Y398250D01*
X63450Y397500D02*X64950D01*
X62700Y401550D02*X63750Y400500D01*
X62700Y402750D02*Y401550D01*
Y402750D02*X63450Y403500D01*
X64950D01*
X65700Y402750D01*
Y401550D01*
X64650Y400500D02*X65700Y401550D01*
X8800Y108700D02*X11200Y106300D01*
X8800D02*X11200Y108700D01*
X8800Y118200D02*X11200Y115800D01*
X8800D02*X11200Y118200D01*
X4300Y130600D02*X6700Y128200D01*
X4300D02*X6700Y130600D01*
X36900Y131000D02*X39300Y128600D01*
X36900D02*X39300Y131000D01*
X60800Y145600D02*X63200Y143200D01*
X60800D02*X63200Y145600D01*
X55800Y172700D02*X58200Y170300D01*
X55800D02*X58200Y172700D01*
X19100Y139300D02*X21500Y136900D01*
X19100D02*X21500Y139300D01*
X72800Y162200D02*X75200Y159800D01*
X72800D02*X75200Y162200D01*
X73800Y137200D02*X76200Y134800D01*
X73800D02*X76200Y137200D01*
X61800Y45700D02*X64200Y43300D01*
X61800D02*X64200Y45700D01*
X13800Y417450D02*X16200Y415050D01*
X13800D02*X16200Y417450D01*
X135000Y418500D02*X136500Y415500D01*
X138000Y418500D01*
X136500Y415500D02*Y412500D01*
X139800Y415800D02*X142050D01*
X139800Y412500D02*X142800D01*
X139800Y418500D02*Y412500D01*
Y418500D02*X142800D01*
X147600D02*X148350Y417750D01*
X145350Y418500D02*X147600D01*
X144600Y417750D02*X145350Y418500D01*
X144600Y417750D02*Y416250D01*
X145350Y415500D01*
X147600D01*
X148350Y414750D01*
Y413250D01*
X147600Y412500D02*X148350Y413250D01*
X145350Y412500D02*X147600D01*
X144600Y413250D02*X145350Y412500D01*
X98000Y417300D02*X99200Y418500D01*
Y412500D01*
X98000D02*X100250D01*
X102050Y413250D02*X102800Y412500D01*
X102050Y417750D02*Y413250D01*
Y417750D02*X102800Y418500D01*
X104300D01*
X105050Y417750D01*
Y413250D01*
X104300Y412500D02*X105050Y413250D01*
X102800Y412500D02*X104300D01*
X102050Y414000D02*X105050Y417000D01*
X45000Y413250D02*X45750Y412500D01*
X45000Y417750D02*Y413250D01*
Y417750D02*X45750Y418500D01*
X47250D01*
X48000Y417750D01*
Y413250D01*
X47250Y412500D02*X48000Y413250D01*
X45750Y412500D02*X47250D01*
X45000Y414000D02*X48000Y417000D01*
X49800Y412500D02*X50550D01*
X52350Y413250D02*X53100Y412500D01*
X52350Y417750D02*Y413250D01*
Y417750D02*X53100Y418500D01*
X54600D01*
X55350Y417750D01*
Y413250D01*
X54600Y412500D02*X55350Y413250D01*
X53100Y412500D02*X54600D01*
X52350Y414000D02*X55350Y417000D01*
X57150Y417750D02*X57900Y418500D01*
X60150D01*
X60900Y417750D01*
Y416250D01*
X57150Y412500D02*X60900Y416250D01*
X57150Y412500D02*X60900D01*
X62700Y413250D02*X63450Y412500D01*
X62700Y417750D02*Y413250D01*
Y417750D02*X63450Y418500D01*
X64950D01*
X65700Y417750D01*
Y413250D01*
X64950Y412500D02*X65700Y413250D01*
X63450Y412500D02*X64950D01*
X62700Y414000D02*X65700Y417000D01*
X57000Y131300D02*Y128100D01*
X55400Y129700D02*X58600D01*
X53800Y134300D02*Y131100D01*
X52200Y132700D02*X55400D01*
X50700Y131300D02*Y128100D01*
X49100Y129700D02*X52300D01*
X15000Y432850D02*Y429650D01*
X13400Y431250D02*X16600D01*
X135000Y433500D02*X136500Y430500D01*
X138000Y433500D01*
X136500Y430500D02*Y427500D01*
X139800Y430800D02*X142050D01*
X139800Y427500D02*X142800D01*
X139800Y433500D02*Y427500D01*
Y433500D02*X142800D01*
X147600D02*X148350Y432750D01*
X145350Y433500D02*X147600D01*
X144600Y432750D02*X145350Y433500D01*
X144600Y432750D02*Y431250D01*
X145350Y430500D01*
X147600D01*
X148350Y429750D01*
Y428250D01*
X147600Y427500D02*X148350Y428250D01*
X145350Y427500D02*X147600D01*
X144600Y428250D02*X145350Y427500D01*
X98000Y432750D02*X98750Y433500D01*
X100250D01*
X101000Y432750D01*
X100250Y427500D02*X101000Y428250D01*
X98750Y427500D02*X100250D01*
X98000Y428250D02*X98750Y427500D01*
Y430800D02*X100250D01*
X101000Y432750D02*Y431550D01*
Y430050D02*Y428250D01*
Y430050D02*X100250Y430800D01*
X101000Y431550D02*X100250Y430800D01*
X45000Y428250D02*X45750Y427500D01*
X45000Y432750D02*Y428250D01*
Y432750D02*X45750Y433500D01*
X47250D01*
X48000Y432750D01*
Y428250D01*
X47250Y427500D02*X48000Y428250D01*
X45750Y427500D02*X47250D01*
X45000Y429000D02*X48000Y432000D01*
X49800Y427500D02*X50550D01*
X52350Y428250D02*X53100Y427500D01*
X52350Y432750D02*Y428250D01*
Y432750D02*X53100Y433500D01*
X54600D01*
X55350Y432750D01*
Y428250D01*
X54600Y427500D02*X55350Y428250D01*
X53100Y427500D02*X54600D01*
X52350Y429000D02*X55350Y432000D01*
X57150Y432300D02*X58350Y433500D01*
Y427500D01*
X57150D02*X59400D01*
X63450Y433500D02*X64200Y432750D01*
X61950Y433500D02*X63450D01*
X61200Y432750D02*X61950Y433500D01*
X61200Y432750D02*Y428250D01*
X61950Y427500D01*
X63450Y430800D02*X64200Y430050D01*
X61200Y430800D02*X63450D01*
X61950Y427500D02*X63450D01*
X64200Y428250D01*
Y430050D02*Y428250D01*
X22000Y170000D02*Y168400D01*
Y170000D02*X23387Y170800D01*
X22000Y170000D02*X20613Y170800D01*
X22000Y164000D02*Y162400D01*
Y164000D02*X23387Y164800D01*
X22000Y164000D02*X20613Y164800D01*
X50700Y169100D02*Y167500D01*
Y169100D02*X52087Y169900D01*
X50700Y169100D02*X49313Y169900D01*
X47600Y171100D02*Y169500D01*
Y171100D02*X48987Y171900D01*
X47600Y171100D02*X46213Y171900D01*
X44400Y169300D02*Y167700D01*
Y169300D02*X45787Y170100D01*
X44400Y169300D02*X43013Y170100D01*
X41300Y171100D02*Y169500D01*
Y171100D02*X42687Y171900D01*
X41300Y171100D02*X39913Y171900D01*
X38100Y169300D02*Y167700D01*
Y169300D02*X39487Y170100D01*
X38100Y169300D02*X36713Y170100D01*
X34900Y171200D02*Y169600D01*
Y171200D02*X36287Y172000D01*
X34900Y171200D02*X33513Y172000D01*
X25500Y215000D02*Y213400D01*
Y215000D02*X26887Y215800D01*
X25500Y215000D02*X24113Y215800D01*
X25500Y210000D02*Y208400D01*
Y210000D02*X26887Y210800D01*
X25500Y210000D02*X24113Y210800D01*
X25500Y202500D02*Y200900D01*
Y202500D02*X26887Y203300D01*
X25500Y202500D02*X24113Y203300D01*
X25500Y197500D02*Y195900D01*
Y197500D02*X26887Y198300D01*
X25500Y197500D02*X24113Y198300D01*
X25500Y190000D02*Y188400D01*
Y190000D02*X26887Y190800D01*
X25500Y190000D02*X24113Y190800D01*
X25500Y185000D02*Y183400D01*
Y185000D02*X26887Y185800D01*
X25500Y185000D02*X24113Y185800D01*
X35000Y222500D02*Y220900D01*
Y222500D02*X36387Y223300D01*
X35000Y222500D02*X33613Y223300D01*
X40000Y227500D02*Y225900D01*
Y227500D02*X41387Y228300D01*
X40000Y227500D02*X38613Y228300D01*
X35000Y235000D02*Y233400D01*
Y235000D02*X36387Y235800D01*
X35000Y235000D02*X33613Y235800D01*
X40000Y240000D02*Y238400D01*
Y240000D02*X41387Y240800D01*
X40000Y240000D02*X38613Y240800D01*
X72500Y252500D02*Y250900D01*
Y252500D02*X73887Y253300D01*
X72500Y252500D02*X71113Y253300D01*
X92500Y165000D02*Y163400D01*
Y165000D02*X93887Y165800D01*
X92500Y165000D02*X91113Y165800D01*
X90000Y170000D02*Y168400D01*
Y170000D02*X91387Y170800D01*
X90000Y170000D02*X88613Y170800D01*
X125000Y85000D02*Y83400D01*
Y85000D02*X126387Y85800D01*
X125000Y85000D02*X123613Y85800D01*
X117500Y60000D02*Y58400D01*
Y60000D02*X118887Y60800D01*
X117500Y60000D02*X116113Y60800D01*
X100000Y60000D02*Y58400D01*
Y60000D02*X101387Y60800D01*
X100000Y60000D02*X98613Y60800D01*
X124900Y60000D02*Y58400D01*
Y60000D02*X126287Y60800D01*
X124900Y60000D02*X123513Y60800D01*
X107400Y60000D02*Y58400D01*
Y60000D02*X108787Y60800D01*
X107400Y60000D02*X106013Y60800D01*
X60500Y152000D02*Y150400D01*
Y152000D02*X61887Y152800D01*
X60500Y152000D02*X59113Y152800D01*
X60500Y157000D02*Y155400D01*
Y157000D02*X61887Y157800D01*
X60500Y157000D02*X59113Y157800D01*
X24500Y160500D02*Y158900D01*
Y160500D02*X25887Y161300D01*
X24500Y160500D02*X23113Y161300D01*
X28000Y157000D02*Y155400D01*
Y157000D02*X29387Y157800D01*
X28000Y157000D02*X26613Y157800D01*
X24500Y154000D02*Y152400D01*
Y154000D02*X25887Y154800D01*
X24500Y154000D02*X23113Y154800D01*
X28000Y150500D02*Y148900D01*
Y150500D02*X29387Y151300D01*
X28000Y150500D02*X26613Y151300D01*
X24500Y147500D02*Y145900D01*
Y147500D02*X25887Y148300D01*
X24500Y147500D02*X23113Y148300D01*
X79900Y252500D02*Y250900D01*
Y252500D02*X81287Y253300D01*
X79900Y252500D02*X78513Y253300D01*
X47400Y240000D02*Y238400D01*
Y240000D02*X48787Y240800D01*
X47400Y240000D02*X46013Y240800D01*
X64900Y240000D02*Y238400D01*
Y240000D02*X66287Y240800D01*
X64900Y240000D02*X63513Y240800D01*
X64900Y227500D02*Y225900D01*
Y227500D02*X66287Y228300D01*
X64900Y227500D02*X63513Y228300D01*
X47400Y227500D02*Y225900D01*
Y227500D02*X48787Y228300D01*
X47400Y227500D02*X46013Y228300D01*
X47400Y215000D02*Y213400D01*
Y215000D02*X48787Y215800D01*
X47400Y215000D02*X46013Y215800D01*
X64900Y215000D02*Y213400D01*
Y215000D02*X66287Y215800D01*
X64900Y215000D02*X63513Y215800D01*
X64900Y202500D02*Y200900D01*
Y202500D02*X66287Y203300D01*
X64900Y202500D02*X63513Y203300D01*
X47400Y202500D02*Y200900D01*
Y202500D02*X48787Y203300D01*
X47400Y202500D02*X46013Y203300D01*
X79900Y190000D02*Y188400D01*
Y190000D02*X81287Y190800D01*
X79900Y190000D02*X78513Y190800D01*
X62400Y190000D02*Y188400D01*
Y190000D02*X63787Y190800D01*
X62400Y190000D02*X61013Y190800D01*
X15000Y446250D02*Y444650D01*
Y446250D02*X16387Y447050D01*
X15000Y446250D02*X13613Y447050D01*
X135000Y448500D02*X136500Y445500D01*
X138000Y448500D01*
X136500Y445500D02*Y442500D01*
X139800Y445800D02*X142050D01*
X139800Y442500D02*X142800D01*
X139800Y448500D02*Y442500D01*
Y448500D02*X142800D01*
X147600D02*X148350Y447750D01*
X145350Y448500D02*X147600D01*
X144600Y447750D02*X145350Y448500D01*
X144600Y447750D02*Y446250D01*
X145350Y445500D01*
X147600D01*
X148350Y444750D01*
Y443250D01*
X147600Y442500D02*X148350Y443250D01*
X145350Y442500D02*X147600D01*
X144600Y443250D02*X145350Y442500D01*
X98000Y444750D02*X101000Y448500D01*
X98000Y444750D02*X101750D01*
X101000Y448500D02*Y442500D01*
X103550Y444750D02*X106550Y448500D01*
X103550Y444750D02*X107300D01*
X106550Y448500D02*Y442500D01*
X45000Y443250D02*X45750Y442500D01*
X45000Y447750D02*Y443250D01*
Y447750D02*X45750Y448500D01*
X47250D01*
X48000Y447750D01*
Y443250D01*
X47250Y442500D02*X48000Y443250D01*
X45750Y442500D02*X47250D01*
X45000Y444000D02*X48000Y447000D01*
X49800Y442500D02*X50550D01*
X52350Y443250D02*X53100Y442500D01*
X52350Y447750D02*Y443250D01*
Y447750D02*X53100Y448500D01*
X54600D01*
X55350Y447750D01*
Y443250D01*
X54600Y442500D02*X55350Y443250D01*
X53100Y442500D02*X54600D01*
X52350Y444000D02*X55350Y447000D01*
X57150Y447300D02*X58350Y448500D01*
Y442500D01*
X57150D02*X59400D01*
X61200Y447750D02*X61950Y448500D01*
X63450D01*
X64200Y447750D01*
X63450Y442500D02*X64200Y443250D01*
X61950Y442500D02*X63450D01*
X61200Y443250D02*X61950Y442500D01*
Y445800D02*X63450D01*
X64200Y447750D02*Y446550D01*
Y445050D02*Y443250D01*
Y445050D02*X63450Y445800D01*
X64200Y446550D02*X63450Y445800D01*
X3000Y463500D02*X3750Y462750D01*
X750Y463500D02*X3000D01*
X0Y462750D02*X750Y463500D01*
X0Y462750D02*Y461250D01*
X750Y460500D01*
X3000D01*
X3750Y459750D01*
Y458250D01*
X3000Y457500D02*X3750Y458250D01*
X750Y457500D02*X3000D01*
X0Y458250D02*X750Y457500D01*
X5550Y460500D02*Y458250D01*
X6300Y457500D01*
X8550Y460500D02*Y456000D01*
X7800Y455250D02*X8550Y456000D01*
X6300Y455250D02*X7800D01*
X5550Y456000D02*X6300Y455250D01*
Y457500D02*X7800D01*
X8550Y458250D01*
X11100Y459750D02*Y457500D01*
Y459750D02*X11850Y460500D01*
X12600D01*
X13350Y459750D01*
Y457500D01*
Y459750D02*X14100Y460500D01*
X14850D01*
X15600Y459750D01*
Y457500D01*
X10350Y460500D02*X11100Y459750D01*
X17400Y463500D02*Y457500D01*
Y458250D02*X18150Y457500D01*
X19650D01*
X20400Y458250D01*
Y459750D02*Y458250D01*
X19650Y460500D02*X20400Y459750D01*
X18150Y460500D02*X19650D01*
X17400Y459750D02*X18150Y460500D01*
X22200Y459750D02*Y458250D01*
Y459750D02*X22950Y460500D01*
X24450D01*
X25200Y459750D01*
Y458250D01*
X24450Y457500D02*X25200Y458250D01*
X22950Y457500D02*X24450D01*
X22200Y458250D02*X22950Y457500D01*
X27000Y463500D02*Y458250D01*
X27750Y457500D01*
X0Y454250D02*X29250D01*
X41750Y463500D02*Y457500D01*
X43700Y463500D02*X44750Y462450D01*
Y458550D01*
X43700Y457500D02*X44750Y458550D01*
X41000Y457500D02*X43700D01*
X41000Y463500D02*X43700D01*
G54D104*X46550Y462000D02*Y461850D01*
G54D103*Y459750D02*Y457500D01*
X50300Y460500D02*X51050Y459750D01*
X48800Y460500D02*X50300D01*
X48050Y459750D02*X48800Y460500D01*
X48050Y459750D02*Y458250D01*
X48800Y457500D01*
X51050Y460500D02*Y458250D01*
X51800Y457500D01*
X48800D02*X50300D01*
X51050Y458250D01*
X54350Y459750D02*Y457500D01*
Y459750D02*X55100Y460500D01*
X55850D01*
X56600Y459750D01*
Y457500D01*
Y459750D02*X57350Y460500D01*
X58100D01*
X58850Y459750D01*
Y457500D01*
X53600Y460500D02*X54350Y459750D01*
X60650Y457500D02*X61400D01*
X65900Y458250D02*X66650Y457500D01*
X65900Y462750D02*X66650Y463500D01*
X65900Y462750D02*Y458250D01*
X68450Y463500D02*X69950D01*
X69200D02*Y457500D01*
X68450D02*X69950D01*
X72500Y459750D02*Y457500D01*
Y459750D02*X73250Y460500D01*
X74000D01*
X74750Y459750D01*
Y457500D01*
X71750Y460500D02*X72500Y459750D01*
X77300Y460500D02*X79550D01*
X76550Y459750D02*X77300Y460500D01*
X76550Y459750D02*Y458250D01*
X77300Y457500D01*
X79550D01*
X81350Y463500D02*Y457500D01*
Y459750D02*X82100Y460500D01*
X83600D01*
X84350Y459750D01*
Y457500D01*
X86150Y463500D02*X86900Y462750D01*
Y458250D01*
X86150Y457500D02*X86900Y458250D01*
X41000Y454250D02*X88700D01*
X96050Y457500D02*X98000D01*
X95000Y458550D02*X96050Y457500D01*
X95000Y462450D02*Y458550D01*
Y462450D02*X96050Y463500D01*
X98000D01*
X99800Y459750D02*Y458250D01*
Y459750D02*X100550Y460500D01*
X102050D01*
X102800Y459750D01*
Y458250D01*
X102050Y457500D02*X102800Y458250D01*
X100550Y457500D02*X102050D01*
X99800Y458250D02*X100550Y457500D01*
X104600Y460500D02*Y458250D01*
X105350Y457500D01*
X106850D01*
X107600Y458250D01*
Y460500D02*Y458250D01*
X110150Y459750D02*Y457500D01*
Y459750D02*X110900Y460500D01*
X111650D01*
X112400Y459750D01*
Y457500D01*
X109400Y460500D02*X110150Y459750D01*
X114950Y463500D02*Y458250D01*
X115700Y457500D01*
X114200Y461250D02*X115700D01*
X95000Y454250D02*X117200D01*
X130750Y463500D02*Y457500D01*
X130000Y463500D02*X133000D01*
X133750Y462750D01*
Y461250D01*
X133000Y460500D02*X133750Y461250D01*
X130750Y460500D02*X133000D01*
X135550Y463500D02*Y458250D01*
X136300Y457500D01*
X140050Y460500D02*X140800Y459750D01*
X138550Y460500D02*X140050D01*
X137800Y459750D02*X138550Y460500D01*
X137800Y459750D02*Y458250D01*
X138550Y457500D01*
X140800Y460500D02*Y458250D01*
X141550Y457500D01*
X138550D02*X140050D01*
X140800Y458250D01*
X144100Y463500D02*Y458250D01*
X144850Y457500D01*
X143350Y461250D02*X144850D01*
X147100Y457500D02*X149350D01*
X146350Y458250D02*X147100Y457500D01*
X146350Y459750D02*Y458250D01*
Y459750D02*X147100Y460500D01*
X148600D01*
X149350Y459750D01*
X146350Y459000D02*X149350D01*
Y459750D02*Y459000D01*
X154150Y463500D02*Y457500D01*
X153400D02*X154150Y458250D01*
X151900Y457500D02*X153400D01*
X151150Y458250D02*X151900Y457500D01*
X151150Y459750D02*Y458250D01*
Y459750D02*X151900Y460500D01*
X153400D01*
X154150Y459750D01*
X157450Y460500D02*Y459750D01*
Y458250D02*Y457500D01*
X155950Y462750D02*Y462000D01*
Y462750D02*X156700Y463500D01*
X158200D01*
X158950Y462750D01*
Y462000D01*
X157450Y460500D02*X158950Y462000D01*
X130000Y454250D02*X160750D01*
X0Y478500D02*X3000D01*
X1500D02*Y472500D01*
X4800Y478500D02*Y472500D01*
Y474750D02*X5550Y475500D01*
X7050D01*
X7800Y474750D01*
Y472500D01*
X10350D02*X12600D01*
X9600Y473250D02*X10350Y472500D01*
X9600Y474750D02*Y473250D01*
Y474750D02*X10350Y475500D01*
X11850D01*
X12600Y474750D01*
X9600Y474000D02*X12600D01*
Y474750D02*Y474000D01*
X15150Y474750D02*Y472500D01*
Y474750D02*X15900Y475500D01*
X17400D01*
X14400D02*X15150Y474750D01*
X19950Y472500D02*X22200D01*
X19200Y473250D02*X19950Y472500D01*
X19200Y474750D02*Y473250D01*
Y474750D02*X19950Y475500D01*
X21450D01*
X22200Y474750D01*
X19200Y474000D02*X22200D01*
Y474750D02*Y474000D01*
X28950Y475500D02*X29700Y474750D01*
X27450Y475500D02*X28950D01*
X26700Y474750D02*X27450Y475500D01*
X26700Y474750D02*Y473250D01*
X27450Y472500D01*
X29700Y475500D02*Y473250D01*
X30450Y472500D01*
X27450D02*X28950D01*
X29700Y473250D01*
X33000Y474750D02*Y472500D01*
Y474750D02*X33750Y475500D01*
X35250D01*
X32250D02*X33000Y474750D01*
X37800Y472500D02*X40050D01*
X37050Y473250D02*X37800Y472500D01*
X37050Y474750D02*Y473250D01*
Y474750D02*X37800Y475500D01*
X39300D01*
X40050Y474750D01*
X37050Y474000D02*X40050D01*
Y474750D02*Y474000D01*
X44550Y477300D02*X45750Y478500D01*
Y472500D01*
X44550D02*X46800D01*
X48600Y473250D02*X49350Y472500D01*
X48600Y477750D02*Y473250D01*
Y477750D02*X49350Y478500D01*
X50850D01*
X51600Y477750D01*
Y473250D01*
X50850Y472500D02*X51600Y473250D01*
X49350Y472500D02*X50850D01*
X48600Y474000D02*X51600Y477000D01*
X59100Y478500D02*Y472500D01*
X58350D02*X59100Y473250D01*
X56850Y472500D02*X58350D01*
X56100Y473250D02*X56850Y472500D01*
X56100Y474750D02*Y473250D01*
Y474750D02*X56850Y475500D01*
X58350D01*
X59100Y474750D01*
G54D104*X60900Y477000D02*Y476850D01*
G54D103*Y474750D02*Y472500D01*
X63150Y477750D02*Y472500D01*
Y477750D02*X63900Y478500D01*
X64650D01*
X62400Y475500D02*X63900D01*
X66900Y477750D02*Y472500D01*
Y477750D02*X67650Y478500D01*
X68400D01*
X66150Y475500D02*X67650D01*
X70650Y472500D02*X72900D01*
X69900Y473250D02*X70650Y472500D01*
X69900Y474750D02*Y473250D01*
Y474750D02*X70650Y475500D01*
X72150D01*
X72900Y474750D01*
X69900Y474000D02*X72900D01*
Y474750D02*Y474000D01*
X75450Y474750D02*Y472500D01*
Y474750D02*X76200Y475500D01*
X77700D01*
X74700D02*X75450Y474750D01*
X80250Y472500D02*X82500D01*
X79500Y473250D02*X80250Y472500D01*
X79500Y474750D02*Y473250D01*
Y474750D02*X80250Y475500D01*
X81750D01*
X82500Y474750D01*
X79500Y474000D02*X82500D01*
Y474750D02*Y474000D01*
X85050Y474750D02*Y472500D01*
Y474750D02*X85800Y475500D01*
X86550D01*
X87300Y474750D01*
Y472500D01*
X84300Y475500D02*X85050Y474750D01*
X89850Y478500D02*Y473250D01*
X90600Y472500D01*
X89100Y476250D02*X90600D01*
X97800Y478500D02*Y472500D01*
X97050D02*X97800Y473250D01*
X95550Y472500D02*X97050D01*
X94800Y473250D02*X95550Y472500D01*
X94800Y474750D02*Y473250D01*
Y474750D02*X95550Y475500D01*
X97050D01*
X97800Y474750D01*
X100350D02*Y472500D01*
Y474750D02*X101100Y475500D01*
X102600D01*
X99600D02*X100350Y474750D01*
G54D104*X104400Y477000D02*Y476850D01*
G54D103*Y474750D02*Y472500D01*
X105900Y478500D02*Y473250D01*
X106650Y472500D01*
X108150Y478500D02*Y473250D01*
X108900Y472500D01*
X113850D02*X116100D01*
X116850Y473250D01*
X116100Y474000D02*X116850Y473250D01*
X113850Y474000D02*X116100D01*
X113100Y474750D02*X113850Y474000D01*
X113100Y474750D02*X113850Y475500D01*
X116100D01*
X116850Y474750D01*
X113100Y473250D02*X113850Y472500D01*
G54D104*X118650Y477000D02*Y476850D01*
G54D103*Y474750D02*Y472500D01*
X120150Y475500D02*X123150D01*
X120150Y472500D02*X123150Y475500D01*
X120150Y472500D02*X123150D01*
X125700D02*X127950D01*
X124950Y473250D02*X125700Y472500D01*
X124950Y474750D02*Y473250D01*
Y474750D02*X125700Y475500D01*
X127200D01*
X127950Y474750D01*
X124950Y474000D02*X127950D01*
Y474750D02*Y474000D01*
X130500Y472500D02*X132750D01*
X133500Y473250D01*
X132750Y474000D02*X133500Y473250D01*
X130500Y474000D02*X132750D01*
X129750Y474750D02*X130500Y474000D01*
X129750Y474750D02*X130500Y475500D01*
X132750D01*
X133500Y474750D01*
X129750Y473250D02*X130500Y472500D01*
X138000Y475500D02*Y473250D01*
X138750Y472500D01*
X140250D01*
X141000Y473250D01*
Y475500D02*Y473250D01*
X143550Y472500D02*X145800D01*
X146550Y473250D01*
X145800Y474000D02*X146550Y473250D01*
X143550Y474000D02*X145800D01*
X142800Y474750D02*X143550Y474000D01*
X142800Y474750D02*X143550Y475500D01*
X145800D01*
X146550Y474750D01*
X142800Y473250D02*X143550Y472500D01*
X149100D02*X151350D01*
X148350Y473250D02*X149100Y472500D01*
X148350Y474750D02*Y473250D01*
Y474750D02*X149100Y475500D01*
X150600D01*
X151350Y474750D01*
X148350Y474000D02*X151350D01*
Y474750D02*Y474000D01*
X156150Y478500D02*Y472500D01*
X155400D02*X156150Y473250D01*
X153900Y472500D02*X155400D01*
X153150Y473250D02*X153900Y472500D01*
X153150Y474750D02*Y473250D01*
Y474750D02*X153900Y475500D01*
X155400D01*
X156150Y474750D01*
G54D104*X160650Y477000D02*Y476850D01*
G54D103*Y474750D02*Y472500D01*
X162900Y474750D02*Y472500D01*
Y474750D02*X163650Y475500D01*
X164400D01*
X165150Y474750D01*
Y472500D01*
X162150Y475500D02*X162900Y474750D01*
X170400Y478500D02*Y473250D01*
X171150Y472500D01*
X169650Y476250D02*X171150D01*
X172650Y478500D02*Y472500D01*
Y474750D02*X173400Y475500D01*
X174900D01*
X175650Y474750D01*
Y472500D01*
G54D104*X177450Y477000D02*Y476850D01*
G54D103*Y474750D02*Y472500D01*
X179700D02*X181950D01*
X182700Y473250D01*
X181950Y474000D02*X182700Y473250D01*
X179700Y474000D02*X181950D01*
X178950Y474750D02*X179700Y474000D01*
X178950Y474750D02*X179700Y475500D01*
X181950D01*
X182700Y474750D01*
X178950Y473250D02*X179700Y472500D01*
X187200Y478500D02*Y473250D01*
X187950Y472500D01*
X191700Y475500D02*X192450Y474750D01*
X190200Y475500D02*X191700D01*
X189450Y474750D02*X190200Y475500D01*
X189450Y474750D02*Y473250D01*
X190200Y472500D01*
X192450Y475500D02*Y473250D01*
X193200Y472500D01*
X190200D02*X191700D01*
X192450Y473250D01*
X195000Y475500D02*Y473250D01*
X195750Y472500D01*
X198000Y475500D02*Y471000D01*
X197250Y470250D02*X198000Y471000D01*
X195750Y470250D02*X197250D01*
X195000Y471000D02*X195750Y470250D01*
Y472500D02*X197250D01*
X198000Y473250D01*
X199800Y474750D02*Y473250D01*
Y474750D02*X200550Y475500D01*
X202050D01*
X202800Y474750D01*
Y473250D01*
X202050Y472500D02*X202800Y473250D01*
X200550Y472500D02*X202050D01*
X199800Y473250D02*X200550Y472500D01*
X204600Y475500D02*Y473250D01*
X205350Y472500D01*
X206850D01*
X207600Y473250D01*
Y475500D02*Y473250D01*
X210150Y478500D02*Y473250D01*
X210900Y472500D01*
X209400Y476250D02*X210900D01*
X212400Y471000D02*X213900Y472500D01*
X218400Y477300D02*X219600Y478500D01*
Y472500D01*
X218400D02*X220650D01*
X222450Y473250D02*X223200Y472500D01*
X222450Y477750D02*Y473250D01*
Y477750D02*X223200Y478500D01*
X224700D01*
X225450Y477750D01*
Y473250D01*
X224700Y472500D02*X225450Y473250D01*
X223200Y472500D02*X224700D01*
X222450Y474000D02*X225450Y477000D01*
X227250Y473250D02*X228000Y472500D01*
X227250Y474450D02*Y473250D01*
Y474450D02*X228300Y475500D01*
X229200D01*
X230250Y474450D01*
Y473250D01*
X229500Y472500D02*X230250Y473250D01*
X228000Y472500D02*X229500D01*
X227250Y476550D02*X228300Y475500D01*
X227250Y477750D02*Y476550D01*
Y477750D02*X228000Y478500D01*
X229500D01*
X230250Y477750D01*
Y476550D01*
X229200Y475500D02*X230250Y476550D01*
X234750Y478500D02*Y472500D01*
Y474750D02*X235500Y475500D01*
X237000D01*
X237750Y474750D01*
Y472500D01*
X239550Y474750D02*Y473250D01*
Y474750D02*X240300Y475500D01*
X241800D01*
X242550Y474750D01*
Y473250D01*
X241800Y472500D02*X242550Y473250D01*
X240300Y472500D02*X241800D01*
X239550Y473250D02*X240300Y472500D01*
X244350Y478500D02*Y473250D01*
X245100Y472500D01*
X247350D02*X249600D01*
X246600Y473250D02*X247350Y472500D01*
X246600Y474750D02*Y473250D01*
Y474750D02*X247350Y475500D01*
X248850D01*
X249600Y474750D01*
X246600Y474000D02*X249600D01*
Y474750D02*Y474000D01*
X252150Y472500D02*X254400D01*
X255150Y473250D01*
X254400Y474000D02*X255150Y473250D01*
X252150Y474000D02*X254400D01*
X251400Y474750D02*X252150Y474000D01*
X251400Y474750D02*X252150Y475500D01*
X254400D01*
X255150Y474750D01*
X251400Y473250D02*X252150Y472500D01*
X260400Y478500D02*Y473250D01*
X261150Y472500D01*
X259650Y476250D02*X261150D01*
X262650Y474750D02*Y473250D01*
Y474750D02*X263400Y475500D01*
X264900D01*
X265650Y474750D01*
Y473250D01*
X264900Y472500D02*X265650Y473250D01*
X263400Y472500D02*X264900D01*
X262650Y473250D02*X263400Y472500D01*
X268200Y478500D02*Y473250D01*
X268950Y472500D01*
X267450Y476250D02*X268950D01*
X272700Y475500D02*X273450Y474750D01*
X271200Y475500D02*X272700D01*
X270450Y474750D02*X271200Y475500D01*
X270450Y474750D02*Y473250D01*
X271200Y472500D01*
X273450Y475500D02*Y473250D01*
X274200Y472500D01*
X271200D02*X272700D01*
X273450Y473250D01*
X276000Y478500D02*Y473250D01*
X276750Y472500D01*
G54D105*X0Y35000D02*X145000D01*
Y300000D01*
X0D01*
Y35000D01*
G54D103*X13675Y-9500D02*X16675D01*
X17425Y-8750D01*
Y-6950D02*Y-8750D01*
X16675Y-6200D02*X17425Y-6950D01*
X14425Y-6200D02*X16675D01*
X14425Y-3500D02*Y-9500D01*
X13675Y-3500D02*X16675D01*
X17425Y-4250D01*
Y-5450D01*
X16675Y-6200D02*X17425Y-5450D01*
X19225Y-7250D02*Y-8750D01*
Y-7250D02*X19975Y-6500D01*
X21475D01*
X22225Y-7250D01*
Y-8750D01*
X21475Y-9500D02*X22225Y-8750D01*
X19975Y-9500D02*X21475D01*
X19225Y-8750D02*X19975Y-9500D01*
X26275Y-6500D02*X27025Y-7250D01*
X24775Y-6500D02*X26275D01*
X24025Y-7250D02*X24775Y-6500D01*
X24025Y-7250D02*Y-8750D01*
X24775Y-9500D01*
X27025Y-6500D02*Y-8750D01*
X27775Y-9500D01*
X24775D02*X26275D01*
X27025Y-8750D01*
X30325Y-7250D02*Y-9500D01*
Y-7250D02*X31075Y-6500D01*
X32575D01*
X29575D02*X30325Y-7250D01*
X37375Y-3500D02*Y-9500D01*
X36625D02*X37375Y-8750D01*
X35125Y-9500D02*X36625D01*
X34375Y-8750D02*X35125Y-9500D01*
X34375Y-7250D02*Y-8750D01*
Y-7250D02*X35125Y-6500D01*
X36625D01*
X37375Y-7250D01*
X41875D02*Y-8750D01*
Y-7250D02*X42625Y-6500D01*
X44125D01*
X44875Y-7250D01*
Y-8750D01*
X44125Y-9500D02*X44875Y-8750D01*
X42625Y-9500D02*X44125D01*
X41875Y-8750D02*X42625Y-9500D01*
X46675Y-6500D02*Y-8750D01*
X47425Y-9500D01*
X48925D01*
X49675Y-8750D01*
Y-6500D02*Y-8750D01*
X52225Y-3500D02*Y-8750D01*
X52975Y-9500D01*
X51475Y-5750D02*X52975D01*
X54475Y-3500D02*Y-8750D01*
X55225Y-9500D01*
G54D104*X56725Y-5000D02*Y-5150D01*
G54D103*Y-7250D02*Y-9500D01*
X58975Y-7250D02*Y-9500D01*
Y-7250D02*X59725Y-6500D01*
X60475D01*
X61225Y-7250D01*
Y-9500D01*
X58225Y-6500D02*X58975Y-7250D01*
X63775Y-9500D02*X66025D01*
X63025Y-8750D02*X63775Y-9500D01*
X63025Y-7250D02*Y-8750D01*
Y-7250D02*X63775Y-6500D01*
X65275D01*
X66025Y-7250D01*
X63025Y-8000D02*X66025D01*
Y-7250D02*Y-8000D01*
G54D104*X70525Y-5000D02*Y-5150D01*
G54D103*Y-7250D02*Y-9500D01*
X72775D02*X75025D01*
X75775Y-8750D01*
X75025Y-8000D02*X75775Y-8750D01*
X72775Y-8000D02*X75025D01*
X72025Y-7250D02*X72775Y-8000D01*
X72025Y-7250D02*X72775Y-6500D01*
X75025D01*
X75775Y-7250D01*
X72025Y-8750D02*X72775Y-9500D01*
X81025Y-3500D02*Y-8750D01*
X81775Y-9500D01*
X80275Y-5750D02*X81775D01*
X83275Y-3500D02*Y-9500D01*
Y-7250D02*X84025Y-6500D01*
X85525D01*
X86275Y-7250D01*
Y-9500D01*
X88825D02*X91075D01*
X88075Y-8750D02*X88825Y-9500D01*
X88075Y-7250D02*Y-8750D01*
Y-7250D02*X88825Y-6500D01*
X90325D01*
X91075Y-7250D01*
X88075Y-8000D02*X91075D01*
Y-7250D02*Y-8000D01*
X96325Y-6500D02*X98575D01*
X95575Y-7250D02*X96325Y-6500D01*
X95575Y-7250D02*Y-8750D01*
X96325Y-9500D01*
X98575D01*
X101125D02*X103375D01*
X100375Y-8750D02*X101125Y-9500D01*
X100375Y-7250D02*Y-8750D01*
Y-7250D02*X101125Y-6500D01*
X102625D01*
X103375Y-7250D01*
X100375Y-8000D02*X103375D01*
Y-7250D02*Y-8000D01*
X105925Y-7250D02*Y-9500D01*
Y-7250D02*X106675Y-6500D01*
X107425D01*
X108175Y-7250D01*
Y-9500D01*
X105175Y-6500D02*X105925Y-7250D01*
X110725Y-3500D02*Y-8750D01*
X111475Y-9500D01*
X109975Y-5750D02*X111475D01*
X113725Y-9500D02*X115975D01*
X112975Y-8750D02*X113725Y-9500D01*
X112975Y-7250D02*Y-8750D01*
Y-7250D02*X113725Y-6500D01*
X115225D01*
X115975Y-7250D01*
X112975Y-8000D02*X115975D01*
Y-7250D02*Y-8000D01*
X118525Y-7250D02*Y-9500D01*
Y-7250D02*X119275Y-6500D01*
X120775D01*
X117775D02*X118525Y-7250D01*
X122575Y-3500D02*Y-8750D01*
X123325Y-9500D01*
G54D104*X124825Y-5000D02*Y-5150D01*
G54D103*Y-7250D02*Y-9500D01*
X127075Y-7250D02*Y-9500D01*
Y-7250D02*X127825Y-6500D01*
X128575D01*
X129325Y-7250D01*
Y-9500D01*
X126325Y-6500D02*X127075Y-7250D01*
X131875Y-9500D02*X134125D01*
X131125Y-8750D02*X131875Y-9500D01*
X131125Y-7250D02*Y-8750D01*
Y-7250D02*X131875Y-6500D01*
X133375D01*
X134125Y-7250D01*
X131125Y-8000D02*X134125D01*
Y-7250D02*Y-8000D01*
X138625Y-7250D02*Y-8750D01*
Y-7250D02*X139375Y-6500D01*
X140875D01*
X141625Y-7250D01*
Y-8750D01*
X140875Y-9500D02*X141625Y-8750D01*
X139375Y-9500D02*X140875D01*
X138625Y-8750D02*X139375Y-9500D01*
X144175Y-4250D02*Y-9500D01*
Y-4250D02*X144925Y-3500D01*
X145675D01*
X143425Y-6500D02*X144925D01*
X150625Y-3500D02*Y-8750D01*
X151375Y-9500D01*
X149875Y-5750D02*X151375D01*
X152875Y-3500D02*Y-9500D01*
Y-7250D02*X153625Y-6500D01*
X155125D01*
X155875Y-7250D01*
Y-9500D01*
G54D104*X157675Y-5000D02*Y-5150D01*
G54D103*Y-7250D02*Y-9500D01*
X159925D02*X162175D01*
X162925Y-8750D01*
X162175Y-8000D02*X162925Y-8750D01*
X159925Y-8000D02*X162175D01*
X159175Y-7250D02*X159925Y-8000D01*
X159175Y-7250D02*X159925Y-6500D01*
X162175D01*
X162925Y-7250D01*
X159175Y-8750D02*X159925Y-9500D01*
X168175Y-7250D02*Y-11750D01*
X167425Y-6500D02*X168175Y-7250D01*
X168925Y-6500D01*
X170425D01*
X171175Y-7250D01*
Y-8750D01*
X170425Y-9500D02*X171175Y-8750D01*
X168925Y-9500D02*X170425D01*
X168175Y-8750D02*X168925Y-9500D01*
X175225Y-6500D02*X175975Y-7250D01*
X173725Y-6500D02*X175225D01*
X172975Y-7250D02*X173725Y-6500D01*
X172975Y-7250D02*Y-8750D01*
X173725Y-9500D01*
X175975Y-6500D02*Y-8750D01*
X176725Y-9500D01*
X173725D02*X175225D01*
X175975Y-8750D01*
X179275Y-3500D02*Y-8750D01*
X180025Y-9500D01*
X178525Y-5750D02*X180025D01*
X181525Y-3500D02*Y-9500D01*
Y-7250D02*X182275Y-6500D01*
X183775D01*
X184525Y-7250D01*
Y-9500D01*
X200750Y328500D02*Y322500D01*
X202700Y328500D02*X203750Y327450D01*
Y323550D01*
X202700Y322500D02*X203750Y323550D01*
X200000Y322500D02*X202700D01*
X200000Y328500D02*X202700D01*
X207800Y325500D02*X208550Y324750D01*
X206300Y325500D02*X207800D01*
X205550Y324750D02*X206300Y325500D01*
X205550Y324750D02*Y323250D01*
X206300Y322500D01*
X208550Y325500D02*Y323250D01*
X209300Y322500D01*
X206300D02*X207800D01*
X208550Y323250D01*
X211850Y328500D02*Y323250D01*
X212600Y322500D01*
X211100Y326250D02*X212600D01*
X214850Y322500D02*X217100D01*
X214100Y323250D02*X214850Y322500D01*
X214100Y324750D02*Y323250D01*
Y324750D02*X214850Y325500D01*
X216350D01*
X217100Y324750D01*
X214100Y324000D02*X217100D01*
Y324750D02*Y324000D01*
X218900Y326250D02*X219650D01*
X218900Y324750D02*X219650D01*
X224150Y328500D02*Y325500D01*
X224900Y322500D01*
X226400Y325500D01*
X227900Y322500D01*
X228650Y325500D01*
Y328500D02*Y325500D01*
X231200Y322500D02*X233450D01*
X230450Y323250D02*X231200Y322500D01*
X230450Y324750D02*Y323250D01*
Y324750D02*X231200Y325500D01*
X232700D01*
X233450Y324750D01*
X230450Y324000D02*X233450D01*
Y324750D02*Y324000D01*
X238250Y328500D02*Y322500D01*
X237500D02*X238250Y323250D01*
X236000Y322500D02*X237500D01*
X235250Y323250D02*X236000Y322500D01*
X235250Y324750D02*Y323250D01*
Y324750D02*X236000Y325500D01*
X237500D01*
X238250Y324750D01*
X242750Y327300D02*X243950Y328500D01*
Y322500D01*
X242750D02*X245000D01*
X249050Y328500D02*X249800Y327750D01*
X247550Y328500D02*X249050D01*
X246800Y327750D02*X247550Y328500D01*
X246800Y327750D02*Y323250D01*
X247550Y322500D01*
X249050Y325800D02*X249800Y325050D01*
X246800Y325800D02*X249050D01*
X247550Y322500D02*X249050D01*
X249800Y323250D01*
Y325050D02*Y323250D01*
X254300Y327750D02*Y323250D01*
Y327750D02*X255050Y328500D01*
X256550D01*
X257300Y327750D01*
Y323250D01*
X256550Y322500D02*X257300Y323250D01*
X255050Y322500D02*X256550D01*
X254300Y323250D02*X255050Y322500D01*
X259850Y325500D02*X262100D01*
X259100Y324750D02*X259850Y325500D01*
X259100Y324750D02*Y323250D01*
X259850Y322500D01*
X262100D01*
X264650Y328500D02*Y323250D01*
X265400Y322500D01*
X263900Y326250D02*X265400D01*
X269600Y327750D02*X270350Y328500D01*
X272600D01*
X273350Y327750D01*
Y326250D01*
X269600Y322500D02*X273350Y326250D01*
X269600Y322500D02*X273350D01*
X275150Y323250D02*X275900Y322500D01*
X275150Y327750D02*Y323250D01*
Y327750D02*X275900Y328500D01*
X277400D01*
X278150Y327750D01*
Y323250D01*
X277400Y322500D02*X278150Y323250D01*
X275900Y322500D02*X277400D01*
X275150Y324000D02*X278150Y327000D01*
X279950Y327300D02*X281150Y328500D01*
Y322500D01*
X279950D02*X282200D01*
X284000Y327750D02*X284750Y328500D01*
X286250D01*
X287000Y327750D01*
X286250Y322500D02*X287000Y323250D01*
X284750Y322500D02*X286250D01*
X284000Y323250D02*X284750Y322500D01*
Y325800D02*X286250D01*
X287000Y327750D02*Y326550D01*
Y325050D02*Y323250D01*
Y325050D02*X286250Y325800D01*
X287000Y326550D02*X286250Y325800D01*
X291500Y323250D02*X292250Y322500D01*
X291500Y327750D02*Y323250D01*
Y327750D02*X292250Y328500D01*
X293750D01*
X294500Y327750D01*
Y323250D01*
X293750Y322500D02*X294500Y323250D01*
X292250Y322500D02*X293750D01*
X291500Y324000D02*X294500Y327000D01*
X296300Y328500D02*X299300D01*
X296300D02*Y325500D01*
X297050Y326250D01*
X298550D01*
X299300Y325500D01*
Y323250D01*
X298550Y322500D02*X299300Y323250D01*
X297050Y322500D02*X298550D01*
X296300Y323250D02*X297050Y322500D01*
X301100Y326250D02*X301850D01*
X301100Y324750D02*X301850D01*
X303650D02*X306650Y328500D01*
X303650Y324750D02*X307400D01*
X306650Y328500D02*Y322500D01*
X309200Y327750D02*X309950Y328500D01*
X311450D01*
X312200Y327750D01*
X311450Y322500D02*X312200Y323250D01*
X309950Y322500D02*X311450D01*
X309200Y323250D02*X309950Y322500D01*
Y325800D02*X311450D01*
X312200Y327750D02*Y326550D01*
Y325050D02*Y323250D01*
Y325050D02*X311450Y325800D01*
X312200Y326550D02*X311450Y325800D01*
X314000Y326250D02*X314750D01*
X314000Y324750D02*X314750D01*
X316550Y327300D02*X317750Y328500D01*
Y322500D01*
X316550D02*X318800D01*
X321350D02*X323600Y325500D01*
Y327750D02*Y325500D01*
X322850Y328500D02*X323600Y327750D01*
X321350Y328500D02*X322850D01*
X320600Y327750D02*X321350Y328500D01*
X320600Y327750D02*Y326250D01*
X321350Y325500D01*
X323600D01*
X328100Y327000D02*Y322500D01*
Y327000D02*X329150Y328500D01*
X330800D01*
X331850Y327000D01*
Y322500D01*
X328100Y325500D02*X331850D01*
X333650Y328500D02*Y322500D01*
Y328500D02*X335900Y325500D01*
X338150Y328500D01*
Y322500D01*
X345650Y328500D02*X346400Y327750D01*
X343400Y328500D02*X345650D01*
X342650Y327750D02*X343400Y328500D01*
X342650Y327750D02*Y323250D01*
X343400Y322500D01*
X345650D01*
X346400Y323250D01*
Y324750D02*Y323250D01*
X345650Y325500D02*X346400Y324750D01*
X344150Y325500D02*X345650D01*
X348200Y328500D02*Y322500D01*
Y328500D02*X350450Y325500D01*
X352700Y328500D01*
Y322500D01*
X354500Y328500D02*X357500D01*
X356000D02*Y322500D01*
X362000Y328500D02*Y323250D01*
X362750Y322500D01*
X364250D01*
X365000Y323250D01*
Y328500D02*Y323250D01*
X366800Y328500D02*X369800D01*
X368300D02*Y322500D01*
X372650D02*X374600D01*
X371600Y323550D02*X372650Y322500D01*
X371600Y327450D02*Y323550D01*
Y327450D02*X372650Y328500D01*
X374600D01*
X200000Y342000D02*Y337500D01*
Y342000D02*X201050Y343500D01*
X202700D01*
X203750Y342000D01*
Y337500D01*
X200000Y340500D02*X203750D01*
X205550D02*Y338250D01*
X206300Y337500D01*
X207800D01*
X208550Y338250D01*
Y340500D02*Y338250D01*
X211100Y343500D02*Y338250D01*
X211850Y337500D01*
X210350Y341250D02*X211850D01*
X213350Y343500D02*Y337500D01*
Y339750D02*X214100Y340500D01*
X215600D01*
X216350Y339750D01*
Y337500D01*
X218150Y339750D02*Y338250D01*
Y339750D02*X218900Y340500D01*
X220400D01*
X221150Y339750D01*
Y338250D01*
X220400Y337500D02*X221150Y338250D01*
X218900Y337500D02*X220400D01*
X218150Y338250D02*X218900Y337500D01*
X223700Y339750D02*Y337500D01*
Y339750D02*X224450Y340500D01*
X225950D01*
X222950D02*X223700Y339750D01*
X227750Y341250D02*X228500D01*
X227750Y339750D02*X228500D01*
X200000Y358500D02*X203000D01*
X201500D02*Y352500D01*
G54D104*X204800Y357000D02*Y356850D01*
G54D103*Y354750D02*Y352500D01*
X207050Y358500D02*Y353250D01*
X207800Y352500D01*
X206300Y356250D02*X207800D01*
X209300Y358500D02*Y353250D01*
X210050Y352500D01*
X212300D02*X214550D01*
X211550Y353250D02*X212300Y352500D01*
X211550Y354750D02*Y353250D01*
Y354750D02*X212300Y355500D01*
X213800D01*
X214550Y354750D01*
X211550Y354000D02*X214550D01*
Y354750D02*Y354000D01*
X216350Y356250D02*X217100D01*
X216350Y354750D02*X217100D01*
X221600Y353250D02*X222350Y352500D01*
X221600Y357750D02*X222350Y358500D01*
X221600Y357750D02*Y353250D01*
X224150Y355500D02*Y353250D01*
X224900Y352500D01*
X226400D01*
X227150Y353250D01*
Y355500D02*Y353250D01*
X229700Y354750D02*Y352500D01*
Y354750D02*X230450Y355500D01*
X231200D01*
X231950Y354750D01*
Y352500D01*
X228950Y355500D02*X229700Y354750D01*
X233750Y358500D02*Y352500D01*
Y354750D02*X236000Y352500D01*
X233750Y354750D02*X235250Y356250D01*
X238550Y354750D02*Y352500D01*
Y354750D02*X239300Y355500D01*
X240050D01*
X240800Y354750D01*
Y352500D01*
X237800Y355500D02*X238550Y354750D01*
X242600D02*Y353250D01*
Y354750D02*X243350Y355500D01*
X244850D01*
X245600Y354750D01*
Y353250D01*
X244850Y352500D02*X245600Y353250D01*
X243350Y352500D02*X244850D01*
X242600Y353250D02*X243350Y352500D01*
X247400Y355500D02*Y353250D01*
X248150Y352500D01*
X248900D01*
X249650Y353250D01*
Y355500D02*Y353250D01*
X250400Y352500D01*
X251150D01*
X251900Y353250D01*
Y355500D02*Y353250D01*
X254450Y354750D02*Y352500D01*
Y354750D02*X255200Y355500D01*
X255950D01*
X256700Y354750D01*
Y352500D01*
X253700Y355500D02*X254450Y354750D01*
X258500Y358500D02*X259250Y357750D01*
Y353250D01*
X258500Y352500D02*X259250Y353250D01*
X263750Y355500D02*X266750D01*
X271250Y358500D02*Y352500D01*
Y358500D02*X274250D01*
X271250Y355800D02*X273500D01*
X278300Y355500D02*X279050Y354750D01*
X276800Y355500D02*X278300D01*
X276050Y354750D02*X276800Y355500D01*
X276050Y354750D02*Y353250D01*
X276800Y352500D01*
X279050Y355500D02*Y353250D01*
X279800Y352500D01*
X276800D02*X278300D01*
X279050Y353250D01*
X281600Y358500D02*Y352500D01*
Y353250D02*X282350Y352500D01*
X283850D01*
X284600Y353250D01*
Y354750D02*Y353250D01*
X283850Y355500D02*X284600Y354750D01*
X282350Y355500D02*X283850D01*
X281600Y354750D02*X282350Y355500D01*
X287150Y354750D02*Y352500D01*
Y354750D02*X287900Y355500D01*
X289400D01*
X286400D02*X287150Y354750D01*
G54D104*X291200Y357000D02*Y356850D01*
G54D103*Y354750D02*Y352500D01*
X293450Y355500D02*X295700D01*
X292700Y354750D02*X293450Y355500D01*
X292700Y354750D02*Y353250D01*
X293450Y352500D01*
X295700D01*
X299750Y355500D02*X300500Y354750D01*
X298250Y355500D02*X299750D01*
X297500Y354750D02*X298250Y355500D01*
X297500Y354750D02*Y353250D01*
X298250Y352500D01*
X300500Y355500D02*Y353250D01*
X301250Y352500D01*
X298250D02*X299750D01*
X300500Y353250D01*
X303800Y358500D02*Y353250D01*
X304550Y352500D01*
X303050Y356250D02*X304550D01*
G54D104*X306050Y357000D02*Y356850D01*
G54D103*Y354750D02*Y352500D01*
X307550Y354750D02*Y353250D01*
Y354750D02*X308300Y355500D01*
X309800D01*
X310550Y354750D01*
Y353250D01*
X309800Y352500D02*X310550Y353250D01*
X308300Y352500D02*X309800D01*
X307550Y353250D02*X308300Y352500D01*
X313100Y354750D02*Y352500D01*
Y354750D02*X313850Y355500D01*
X314600D01*
X315350Y354750D01*
Y352500D01*
X312350Y355500D02*X313100Y354750D01*
X320600Y358500D02*Y352500D01*
X322550Y358500D02*X323600Y357450D01*
Y353550D01*
X322550Y352500D02*X323600Y353550D01*
X319850Y352500D02*X322550D01*
X319850Y358500D02*X322550D01*
X326150Y354750D02*Y352500D01*
Y354750D02*X326900Y355500D01*
X328400D01*
X325400D02*X326150Y354750D01*
X332450Y355500D02*X333200Y354750D01*
X330950Y355500D02*X332450D01*
X330200Y354750D02*X330950Y355500D01*
X330200Y354750D02*Y353250D01*
X330950Y352500D01*
X333200Y355500D02*Y353250D01*
X333950Y352500D01*
X330950D02*X332450D01*
X333200Y353250D01*
X335750Y355500D02*Y353250D01*
X336500Y352500D01*
X337250D01*
X338000Y353250D01*
Y355500D02*Y353250D01*
X338750Y352500D01*
X339500D01*
X340250Y353250D01*
Y355500D02*Y353250D01*
G54D104*X342050Y357000D02*Y356850D01*
G54D103*Y354750D02*Y352500D01*
X344300Y354750D02*Y352500D01*
Y354750D02*X345050Y355500D01*
X345800D01*
X346550Y354750D01*
Y352500D01*
X343550Y355500D02*X344300Y354750D01*
X350600Y355500D02*X351350Y354750D01*
X349100Y355500D02*X350600D01*
X348350Y354750D02*X349100Y355500D01*
X348350Y354750D02*Y353250D01*
X349100Y352500D01*
X350600D01*
X351350Y353250D01*
X348350Y351000D02*X349100Y350250D01*
X350600D01*
X351350Y351000D01*
Y355500D02*Y351000D01*
M02*
