G04 start of page 2 for group 0 idx 0 *
G04 Title: (unknown), top *
G04 Creator: pcb 1.99z *
G04 CreationDate: Wed 16 Oct 2013 05:43:19 AM GMT UTC *
G04 For: commonadmin *
G04 Format: Gerber/RS-274X *
G04 PCB-Dimensions: 200000 300000 *
G04 PCB-Coordinate-Origin: lower left *
%MOIN*%
%FSLAX25Y25*%
%LNTOP*%
%ADD38C,0.0280*%
%ADD37C,0.0905*%
%ADD36C,0.0380*%
%ADD35C,0.1250*%
%ADD34C,0.0300*%
%ADD33C,0.0160*%
%ADD32C,0.0350*%
%ADD31C,0.0200*%
%ADD30C,0.1181*%
%ADD29C,0.0130*%
%ADD28C,0.0320*%
%ADD27C,0.0360*%
%ADD26C,0.1339*%
%ADD25C,0.0270*%
%ADD24R,0.0197X0.0197*%
%ADD23R,0.0157X0.0157*%
%ADD22R,0.0610X0.0610*%
%ADD21R,0.0370X0.0370*%
%ADD20R,0.0512X0.0512*%
%ADD19R,0.0510X0.0510*%
%ADD18R,0.0295X0.0295*%
%ADD17C,0.1660*%
%ADD16C,0.2500*%
%ADD15C,0.0600*%
%ADD14C,0.0550*%
%ADD13C,0.0250*%
%ADD12C,0.0100*%
%ADD11C,0.0001*%
G54D11*G36*
X70500Y52000D02*X70426D01*
X70471Y52053D01*
X70500Y52000D01*
G37*
G36*
X70579Y51000D02*X66300D01*
Y51557D01*
X69585Y51564D01*
X69815Y51619D01*
X70033Y51709D01*
X70234Y51833D01*
X70414Y51986D01*
X70567Y52166D01*
X70691Y52367D01*
X70781Y52585D01*
X70836Y52815D01*
X70850Y53050D01*
X70836Y65385D01*
X70781Y65615D01*
X70691Y65833D01*
X70567Y66034D01*
X70414Y66214D01*
X70234Y66367D01*
X70033Y66491D01*
X69815Y66581D01*
X69585Y66636D01*
X69350Y66650D01*
X66300Y66643D01*
Y67000D01*
X70379D01*
X71500Y65879D01*
Y56559D01*
X71495Y56500D01*
X71500Y56441D01*
Y51921D01*
X70579Y51000D01*
G37*
G36*
X66300D02*X54500D01*
Y67000D01*
X66300D01*
Y66643D01*
X63015Y66636D01*
X62785Y66581D01*
X62567Y66491D01*
X62366Y66367D01*
X62186Y66214D01*
X62033Y66034D01*
X61909Y65833D01*
X61819Y65615D01*
X61764Y65385D01*
X61750Y65150D01*
X61764Y52815D01*
X61819Y52585D01*
X61909Y52367D01*
X62033Y52166D01*
X62186Y51986D01*
X62366Y51833D01*
X62567Y51709D01*
X62785Y51619D01*
X63015Y51564D01*
X63250Y51550D01*
X66300Y51557D01*
Y51000D01*
G37*
G54D12*X117500Y77500D02*X97500D01*
X120000Y80000D02*X117500Y77500D01*
X120000Y87500D02*Y80000D01*
X122500Y90000D02*X120000Y87500D01*
X117500Y60000D02*Y62500D01*
Y60000D02*Y70000D01*
X122500Y110000D02*Y90000D01*
X117500Y115000D02*X122500Y110000D01*
X95000Y115000D02*X117500D01*
X120000Y117500D02*X97500D01*
X125000Y112500D02*X120000Y117500D01*
X125000Y85000D02*Y112500D01*
X130000Y75000D02*Y142500D01*
X127500Y77500D02*Y137500D01*
Y77500D02*X125000Y75000D01*
X110118D01*
X125000Y70000D02*X130000Y75000D01*
X122618Y70000D02*X125000D01*
X95000Y65000D02*Y75000D01*
X100000Y60000D02*X95000Y65000D01*
X97500Y50000D02*X82300Y65200D01*
X102500Y50000D02*X97500D01*
X100000Y70000D02*Y60000D01*
X74300Y65200D02*X78500D01*
X77700D02*X82300D01*
X75600Y59100D02*X78500D01*
X75600D02*X73000Y56500D01*
Y51300D01*
X78500Y53000D02*Y44990D01*
G54D13*X70000Y65500D02*Y52500D01*
G54D12*X73000Y51300D02*X66300Y44600D01*
X40000Y215000D02*X25500D01*
X40000Y202500D02*X25500D01*
X40000Y215000D02*Y217500D01*
Y202500D02*Y205000D01*
Y227500D02*Y230000D01*
X55000Y222500D02*X35000D01*
X57500Y225000D02*X55000Y222500D01*
X57500Y227500D02*Y225000D01*
X60000Y222500D01*
X57500Y212500D02*X60000Y210000D01*
X57500Y215000D02*Y212500D01*
X40000Y205000D02*X42500Y207500D01*
X70000Y232500D02*X42500D01*
X55000Y235000D02*X35000D01*
X57500Y237500D02*X55000Y235000D01*
X57500Y237500D02*X60000Y235000D01*
X40000Y230000D02*X42500Y232500D01*
X40000Y242500D02*X42500Y245000D01*
X40000Y240000D02*Y242500D01*
X57500Y240000D02*Y237500D01*
X71000Y231500D02*X70000Y232500D01*
X76000Y231500D02*X71000D01*
X88000Y226500D02*X74000D01*
X75000Y247500D02*X88000D01*
X72500Y250000D02*X75000Y247500D01*
X72500Y252500D02*Y250000D01*
X42500Y245000D02*X70000D01*
X72500Y242500D02*X70000Y245000D01*
X76000Y242500D02*X72500D01*
Y235000D02*X60000D01*
X74000Y236500D02*X72500Y235000D01*
X88000Y236500D02*X74000D01*
X92500Y122500D02*Y165000D01*
X90000Y120000D02*Y170000D01*
Y120000D02*X95000Y115000D01*
X97500Y117500D02*X92500Y122500D01*
X99900Y134400D02*Y137400D01*
X107500Y145000D02*X99900Y137400D01*
X127500Y145000D02*X107500D01*
X130000Y142500D02*X127500Y145000D01*
X111300Y140000D02*X111100Y139800D01*
X125000Y140000D02*X111300D01*
X127500Y137500D02*X125000Y140000D01*
X100500Y135000D02*X99900Y134400D01*
X82000Y163500D02*X81000Y164500D01*
X79500Y154500D02*X83500Y158500D01*
Y162000D02*Y158500D01*
Y162000D02*X81000Y164500D01*
X79310Y142690D02*X83500Y138500D01*
X38098Y126000D02*Y123402D01*
X41248Y126000D02*Y120442D01*
X43690Y118000D01*
X31799Y126000D02*Y119213D01*
X53800Y132700D02*Y126046D01*
X50700Y129700D02*Y126004D01*
X50696Y126000D01*
G54D13*X28649Y130649D02*X41248Y143248D01*
G54D12*X32000Y143500D02*Y139500D01*
Y143500D02*X33000Y142500D01*
X41217Y150717D02*X33000Y142500D01*
X27815Y150685D02*X28000Y150500D01*
X31799Y119213D02*X31086Y118500D01*
X21000Y104000D02*X32500D01*
X26300Y101000D02*X30300Y97000D01*
X34948Y126000D02*Y111948D01*
X34000Y111000D01*
X32500Y104000D02*X35500Y101000D01*
Y94400D01*
X18000Y108000D02*X17500Y107500D01*
X21000Y111000D02*X17500Y107500D01*
X21000Y104000D01*
X6500Y101000D02*X26300D01*
X10000Y107500D02*X12382D01*
X21000Y111000D02*X26914D01*
X19000Y118500D02*X24000D01*
X19000D02*X17500Y117000D01*
Y114000D01*
X53800Y126046D02*X53846Y126000D01*
X57000Y129700D02*Y126004D01*
X56996Y126000D01*
G54D13*X51500Y109000D02*X55500D01*
X51500Y114000D02*Y109000D01*
Y114000D02*X55500Y118000D01*
X43690Y109000D02*Y104190D01*
X44397Y147536D02*Y126000D01*
X41248Y150685D02*Y143248D01*
G54D12*X45815Y150685D02*X55264Y141236D01*
X17500Y114000D02*X15500Y112000D01*
X6500D02*X15500D01*
X6500D02*X4500Y110000D01*
X10000Y117000D02*X12382D01*
X4500Y110000D02*Y103000D01*
X6500Y101000D01*
X5500Y131500D02*Y125000D01*
Y131500D02*X6500Y132500D01*
X9573Y141237D02*X16563D01*
X9573D02*X6500Y144310D01*
X16563Y147536D02*X24464D01*
X12014Y144386D02*X16563D01*
X12014D02*X11400Y145000D01*
Y149500D02*Y145000D01*
X24464Y147536D02*X24500Y147500D01*
X16563Y150685D02*X27815D01*
X7500Y150000D02*X10900D01*
X11400Y149500D01*
X16563Y153835D02*X24335D01*
X24500Y154000D01*
X16563Y156985D02*X27985D01*
X28000Y157000D01*
X16563Y160134D02*X24134D01*
X24500Y160500D01*
X30300Y89200D02*X32700D01*
G54D13*X50800Y78500D02*X40100Y89200D01*
G54D12*X35500Y94400D02*X30300Y89200D01*
G54D13*X40100Y97100D02*Y97000D01*
X28649Y130649D02*Y126000D01*
G54D12*X32000Y139500D02*X30000Y141500D01*
Y137500D01*
X28000Y139500D01*
Y135500D01*
X27000Y136500D01*
X16563Y134937D02*Y125747D01*
X17310Y126810D02*X27000Y136500D01*
X16563Y125747D02*X17310Y125000D01*
Y126810D02*Y125000D01*
X55264Y141236D02*X65933D01*
Y138086D02*X68414D01*
X66500D02*X69414D01*
X70500Y137000D01*
X81000Y122500D02*X82810D01*
Y115310D01*
X80000Y112500D01*
X70190Y122500D02*X61000Y113310D01*
X83000Y133500D02*X82000Y132500D01*
X83500Y138500D02*Y134000D01*
X82000Y132500D01*
X75000Y136000D02*Y132586D01*
X74914Y132500D01*
X70500Y137000D02*Y129000D01*
X71500Y128000D01*
X70190Y122500D02*X71000D01*
X71500Y128000D02*X77310D01*
X82810Y122500D01*
X95000Y75000D02*X97500Y77500D01*
X110118Y75000D02*X105118Y70000D01*
X58600Y78500D02*X58900D01*
G54D13*X50800D02*X58500D01*
X11500D02*X29400D01*
X40100Y89200D01*
G54D12*X65000Y92500D02*X70000D01*
X69000Y83500D02*X63000Y89500D01*
X40100Y89200D02*Y68900D01*
X69000Y83500D02*Y70500D01*
X74300Y65200D01*
G54D13*X62500Y65500D02*X70000D01*
G54D12*X40100Y69100D02*Y62400D01*
G54D13*X43690Y104190D02*X43500Y104000D01*
G54D12*X61000Y113310D02*Y103500D01*
X65000Y92500D02*X59000Y98500D01*
X55000Y89500D02*X63000D01*
X43500Y104000D02*X48500D01*
X50500Y102000D01*
X49000Y98500D02*X43500Y104000D01*
Y101000D01*
X50500Y102000D02*X59500D01*
X61000Y103500D01*
X49000Y98500D02*X59000D01*
X55000Y89500D02*X43500Y101000D01*
X40100Y62400D02*X63000Y39500D01*
X73010D01*
X78500Y44990D01*
G54D13*X62500Y65500D02*Y52500D01*
X70000D01*
G54D12*X50697Y169103D02*X50700Y169100D01*
X50697Y175370D02*Y169103D01*
X47548Y171152D02*X47600Y171100D01*
X47548Y175370D02*Y171152D01*
X53847Y175370D02*Y163284D01*
X44398Y169302D02*X44400Y169300D01*
X38099Y169301D02*X38100Y169300D01*
X44398Y175370D02*Y169302D01*
X41248Y171152D02*X41300Y171100D01*
X34949Y171249D02*X34900Y171200D01*
X41248Y175370D02*Y171152D01*
X38099Y175370D02*Y169301D01*
X34949Y175370D02*Y171249D01*
X7500Y157500D02*Y153148D01*
Y157500D02*X6500Y158500D01*
X21690Y170310D02*X22000Y170000D01*
X6500Y170310D02*X21690D01*
X21284Y163284D02*X22000Y164000D01*
X16563Y163284D02*X21284D01*
X16630Y166500D02*X26000D01*
X16630D02*X16563Y166433D01*
X53847Y163284D02*X41248Y150685D01*
X41185D02*X45815D01*
G54D13*X44397Y147536D02*X41248Y150685D01*
G54D12*Y151252D02*Y150685D01*
Y151252D02*X26000Y166500D01*
X41000Y150933D02*X41248Y150685D01*
X77500Y174500D02*X79500D01*
X67500D02*X69500D01*
X59500Y169500D02*Y161500D01*
Y169500D02*X60500Y170500D01*
X61500Y168500D02*Y164500D01*
Y168500D02*X64500Y171500D01*
X60500Y175500D02*Y170500D01*
X67500Y174500D02*X64000Y171000D01*
X60500Y175500D02*X64500Y179500D01*
X74500D01*
X79500Y174500D01*
X65933Y150685D02*X69685D01*
X73500Y154500D01*
X79500D01*
X65933Y147535D02*X68655D01*
X73500Y142690D01*
X79310D01*
X79190D02*X79310D01*
X60867Y160133D02*X65933D01*
X62717Y163283D02*X65933D01*
X62717D02*X61500Y164500D01*
X62334Y153834D02*X60500Y152000D01*
X60867Y160133D02*X59500Y161500D01*
X62334Y153834D02*X65933D01*
X60516Y156984D02*X65933D01*
X60516D02*X60500Y157000D01*
X55000Y190000D02*X25500D01*
X70000Y185000D02*X25500D01*
X55000Y210000D02*X25500D01*
X55000Y197500D02*X25500D01*
X57500Y200000D02*X55000Y197500D01*
X57500Y212500D02*X55000Y210000D01*
X57500Y202500D02*Y200000D01*
X60000Y197500D01*
X55000Y192500D02*X57500Y195000D01*
X55000Y190000D02*Y192500D01*
X60000Y222500D02*X70000D01*
X74000Y226500D02*X70000Y222500D01*
X74500Y220000D02*X76000Y221500D01*
X42500Y220000D02*X74500D01*
X40000Y217500D02*X42500Y220000D01*
X70000Y210000D02*X60000D01*
X42500Y207500D02*X72500D01*
X75500Y210500D02*X72500Y207500D01*
X75500Y215500D02*X70000Y210000D01*
X88000Y215500D02*X75500D01*
X76000Y210500D02*X75500D01*
Y210000D02*X76000Y210500D01*
X74500Y204500D02*X72500Y202500D01*
X88000Y204500D02*X74500D01*
X72500Y200000D02*Y202500D01*
X70000Y197500D02*X72500Y200000D01*
X60000Y197500D02*X70000D01*
X57500Y195000D02*X72500D01*
X76000Y198500D02*X72500Y195000D01*
X76000Y199500D02*Y198500D01*
X72500Y187500D02*X70000Y185000D01*
X88000Y187000D02*Y193500D01*
X86000Y185000D02*X88000Y187000D01*
X75000Y185000D02*X86000D01*
X72500Y187500D02*X75000Y185000D01*
X72500Y190000D02*Y187500D01*
X110800Y193500D02*X111100Y193800D01*
X111000Y204500D02*X111100Y204600D01*
X111000Y215500D02*X111100Y215400D01*
X110600Y236500D02*X111100Y237000D01*
X110800Y247500D02*X111100Y247800D01*
X93118Y193500D02*X110800D01*
X99600Y199500D02*X99900Y199200D01*
X93118Y204500D02*X111000D01*
X99400Y210500D02*X99900Y210000D01*
X81118Y199500D02*X99600D01*
X81118Y210500D02*X99400D01*
X93118Y215500D02*X111000D01*
X99200Y221500D02*X99900Y220800D01*
X81118Y221500D02*X99200D01*
X81118Y242500D02*X99800D01*
X110800Y226500D02*X111100Y226200D01*
X93118Y226500D02*X110800D01*
X99800Y231500D02*X99900Y231600D01*
X81118Y231500D02*X99800D01*
X93118Y236500D02*X110600D01*
X93118Y247500D02*X110800D01*
X99800Y242500D02*X99900Y242400D01*
G54D11*G36*
X99750Y52750D02*Y47250D01*
X105250D01*
Y52750D01*
X99750D01*
G37*
G54D14*X122500Y50000D03*
G54D11*G36*
X96900Y256200D02*Y250200D01*
X102900D01*
Y256200D01*
X96900D01*
G37*
G54D15*X99900Y242400D03*
X111100Y247800D03*
Y237000D03*
G54D16*X105500Y280200D03*
G54D15*X99900Y199200D03*
Y188400D03*
Y231600D03*
Y220800D03*
Y210000D03*
X111100Y226200D03*
Y215400D03*
Y204600D03*
Y193800D03*
Y183000D03*
X99900Y177600D03*
G54D11*G36*
X76500Y177500D02*Y171500D01*
X82500D01*
Y177500D01*
X76500D01*
G37*
G54D15*X69500Y174500D03*
X99900Y166800D03*
Y156000D03*
Y145200D03*
Y134400D03*
Y123600D03*
X111100Y172200D03*
Y161400D03*
Y150600D03*
Y139800D03*
Y129000D03*
G54D11*G36*
X80750Y161250D02*Y155750D01*
X86250D01*
Y161250D01*
X80750D01*
G37*
G54D14*X83500Y138500D03*
G54D16*X105500Y96600D03*
G54D17*X58900Y78500D03*
G54D11*G36*
X77000Y95500D02*Y89500D01*
X83000D01*
Y95500D01*
X77000D01*
G37*
G54D15*X70000Y92500D03*
X80000Y102500D03*
X70000D03*
X40100Y89200D03*
X30300D03*
Y97000D03*
X40100D03*
G54D17*X11500Y78500D03*
G54D15*X80000Y112500D03*
X70000D03*
G54D18*X100000Y70492D02*Y69508D01*
G54D19*X100000Y61000D02*Y59000D01*
G54D18*X105118Y70492D02*Y69508D01*
G54D19*X107400Y61000D02*Y59000D01*
G54D18*X117500Y70492D02*Y69508D01*
X122618Y70492D02*Y69508D01*
G54D19*X117500Y61000D02*Y59000D01*
X124900Y61000D02*Y59000D01*
G54D20*X78110Y45781D02*Y43419D01*
X66300Y45781D02*Y43419D01*
G54D21*X77300Y53000D02*X79700D01*
X77300Y59100D02*X79700D01*
X77300Y65200D02*X79700D01*
G54D22*X66300Y62100D02*Y56100D01*
G54D23*X50696Y128213D02*Y123787D01*
X53846Y128213D02*Y123787D01*
G54D20*X55500Y119181D02*Y116819D01*
Y110181D02*Y107819D01*
G54D23*X56996Y128213D02*Y123787D01*
X63720Y134937D02*X68146D01*
G54D20*X71000Y123681D02*Y121319D01*
X82810Y123681D02*Y121319D01*
X74914Y132893D02*Y132107D01*
X82000Y132893D02*Y132107D01*
G54D23*X34948Y128213D02*Y123787D01*
X38098Y128213D02*Y123787D01*
X41248Y128213D02*Y123787D01*
X44397Y128213D02*Y123787D01*
X47547Y128213D02*Y123787D01*
G54D20*X43690Y119181D02*Y116819D01*
Y110181D02*Y107819D01*
G54D23*X25500Y128213D02*Y123787D01*
X28649Y128213D02*Y123787D01*
X31799Y128213D02*Y123787D01*
G54D20*X5319Y132500D02*X7681D01*
X5500Y126181D02*Y123819D01*
X17310Y126181D02*Y123819D01*
G54D18*X12382Y117492D02*Y116508D01*
X17500Y117492D02*Y116508D01*
G54D20*X24000Y118893D02*Y118107D01*
X31086Y118893D02*Y118107D01*
X26914Y111393D02*Y110607D01*
X34000Y111393D02*Y110607D01*
G54D18*X12382Y107992D02*Y107008D01*
X17500Y107992D02*Y107008D01*
G54D23*X63720Y138086D02*X68146D01*
X63720Y141236D02*X68146D01*
X63720Y144385D02*X68146D01*
X63720Y147535D02*X68146D01*
X63720Y150685D02*X68146D01*
X63720Y153834D02*X68146D01*
X63720Y156984D02*X68146D01*
X63720Y160133D02*X68146D01*
X63720Y163283D02*X68146D01*
X63720Y166433D02*X68146D01*
G54D20*X72319Y154500D02*X74681D01*
X72319Y142690D02*X74681D01*
X73914Y164893D02*Y164107D01*
X81000Y164893D02*Y164107D01*
G54D23*X56996Y177583D02*Y173157D01*
X53847Y177583D02*Y173157D01*
X50697Y177583D02*Y173157D01*
X47548Y177583D02*Y173157D01*
X44398Y177583D02*Y173157D01*
X41248Y177583D02*Y173157D01*
X38099Y177583D02*Y173157D01*
X34949Y177583D02*Y173157D01*
X31800Y177583D02*Y173157D01*
X28650Y177583D02*Y173157D01*
X25500Y177583D02*Y173157D01*
X14350Y166433D02*X18776D01*
G54D20*X5319Y170310D02*X7681D01*
G54D23*X14350Y163284D02*X18776D01*
X14350Y160134D02*X18776D01*
X14350Y156985D02*X18776D01*
G54D20*X5319Y158500D02*X7681D01*
G54D23*X14350Y153835D02*X18776D01*
X14350Y150685D02*X18776D01*
X14350Y147536D02*X18776D01*
X14350Y144386D02*X18776D01*
X14350Y141237D02*X18776D01*
G54D20*X5319Y144310D02*X7681D01*
G54D24*X7107Y150000D02*X7893D01*
X7107Y153148D02*X7893D01*
G54D23*X14350Y138087D02*X18776D01*
X14350Y134937D02*X18776D01*
G54D19*X40000Y216000D02*Y214000D01*
Y203500D02*Y201500D01*
Y241000D02*Y239000D01*
Y228500D02*Y226500D01*
X47400Y216000D02*Y214000D01*
Y203500D02*Y201500D01*
Y241000D02*Y239000D01*
Y228500D02*Y226500D01*
X57500Y216000D02*Y214000D01*
X64900Y216000D02*Y214000D01*
X57500Y241000D02*Y239000D01*
X64900Y241000D02*Y239000D01*
X57500Y228500D02*Y226500D01*
X64900Y228500D02*Y226500D01*
X57500Y203500D02*Y201500D01*
X64900Y203500D02*Y201500D01*
X55000Y191000D02*Y189000D01*
X62400Y191000D02*Y189000D01*
G54D18*X76000Y221992D02*Y221008D01*
Y210992D02*Y210008D01*
X81118Y221992D02*Y221008D01*
Y210992D02*Y210008D01*
G54D19*X72500Y191000D02*Y189000D01*
X79900Y191000D02*Y189000D01*
G54D18*X76000Y199992D02*Y199008D01*
X81118Y199992D02*Y199008D01*
X88000Y204992D02*Y204008D01*
X93118Y204992D02*Y204008D01*
X88000Y193992D02*Y193008D01*
X93118Y193992D02*Y193008D01*
G54D19*X72500Y253500D02*Y251500D01*
G54D18*X76000Y242992D02*Y242008D01*
X81118Y242992D02*Y242008D01*
X76000Y231992D02*Y231008D01*
X81118Y231992D02*Y231008D01*
G54D19*X79900Y253500D02*Y251500D01*
G54D18*X88000Y247992D02*Y247008D01*
X93118Y247992D02*Y247008D01*
X88000Y236992D02*Y236008D01*
X93118Y236992D02*Y236008D01*
X88000Y226992D02*Y226008D01*
X93118Y226992D02*Y226008D01*
X88000Y215992D02*Y215008D01*
X93118Y215992D02*Y215008D01*
G54D25*X25500Y215000D03*
X35000Y222500D03*
X25500Y210000D03*
G54D26*X20000Y282500D03*
G54D25*X79900Y252500D03*
G54D26*X75000Y282500D03*
G54D25*X40000Y227500D03*
X35000Y235000D03*
X40000Y240000D03*
X47400D03*
Y227500D03*
X72500Y252500D03*
X64900Y240000D03*
Y227500D03*
X47400Y215000D03*
X64900D03*
X50700Y169100D03*
X47600Y171100D03*
X44400Y169300D03*
X41300Y171100D03*
X38100Y169300D03*
X34900Y171200D03*
X25500Y202500D03*
Y197500D03*
Y190000D03*
Y185000D03*
X92500Y165000D03*
X90000Y170000D03*
X79900Y190000D03*
G54D27*X57000Y171500D03*
G54D25*X62400Y190000D03*
X64900Y202500D03*
X47400D03*
X22000Y170000D03*
Y164000D03*
X24500Y160500D03*
G54D15*X51500Y109000D03*
G54D27*X38100Y129800D03*
G54D28*X50700Y129700D03*
G54D15*X43500Y104000D03*
G54D27*X62000Y144400D03*
G54D15*X41248Y150685D03*
G54D27*X74000Y161000D03*
G54D25*X60500Y152000D03*
Y157000D03*
G54D28*X53800Y132700D03*
G54D27*X75000Y136000D03*
X10000Y107500D03*
Y117000D03*
X5500Y129400D03*
X20300Y138100D03*
G54D25*X28000Y157000D03*
X24500Y154000D03*
X28000Y150500D03*
X24500Y147500D03*
X125000Y85000D03*
X117500Y60000D03*
X100000D03*
X124900D03*
X107400D03*
G54D26*X77500Y78000D03*
G54D28*X57000Y129700D03*
G54D27*X63000Y44500D03*
G54D29*G54D30*G54D29*G54D30*G54D29*G54D31*G54D29*G54D32*G54D31*G54D33*G54D32*G54D31*G54D32*G54D31*G54D29*G54D33*G54D31*G54D29*G54D30*G54D33*G54D31*G54D34*G54D32*G54D35*G54D32*G54D36*G54D32*G54D34*G54D35*G54D37*G54D36*G54D38*G54D37*G54D36*M02*
